<?xml version="1.0" encoding="utf-8"?>
<!-- Generator: Adobe Illustrator 23.0.4, SVG Export Plug-In . SVG Version: 6.00 Build 0)  -->
<svg version="1.1" id="Layer_1" xmlns="http://www.w3.org/2000/svg" xmlns:xlink="http://www.w3.org/1999/xlink" x="0px" y="0px"
	 viewBox="0 0 1600 1200" enable-background="new 0 0 1600 1200" xml:space="preserve">
<g>
	<path fill="#BCB6F9" d="M343.7,1076.2H80.1c-3.8,0-6.9-3.1-6.9-6.9l0,0c0-3.8,3.1-6.9,6.9-6.9h263.7c3.8,0,6.9,3.1,6.9,6.9l0,0
		C350.7,1073.1,347.6,1076.2,343.7,1076.2z"/>
	<path fill="#BCB6F9" d="M1339.7,1076.2h-149.7c-3.8,0-6.9-3.1-6.9-6.9l0,0c0-3.8,3.1-6.9,6.9-6.9h149.7c3.8,0,6.9,3.1,6.9,6.9l0,0
		C1346.7,1073.1,1343.6,1076.2,1339.7,1076.2z"/>
	<path fill="#BCB6F9" d="M876.3,1001.2H726.6c-3.8,0-6.9-3.1-6.9-6.9l0,0c0-3.8,3.1-6.9,6.9-6.9h149.7c3.8,0,6.9,3.1,6.9,6.9l0,0
		C883.2,998.1,880.1,1001.2,876.3,1001.2z"/>
	<path opacity="0.4" fill="#D2F2D2" d="M839.3,94.6L839.3,94.6c-340,0-615.6,275.6-615.6,615.6v262.2h1231.3V710.2
		C1454.9,370.2,1179.3,94.6,839.3,94.6z"/>
	<g opacity="0.54">
		<rect x="240.4" y="533.3" opacity="0.7" fill="#028169" width="214.3" height="438.3"/>
		<polygon fill="#028169" points="370.2,352.8 370.2,332.5 352.1,332.5 352.1,315.3 332.7,315.3 332.7,249 323.7,249 323.7,315.3 
			304.3,315.3 304.3,332.5 286.2,332.5 286.2,352.8 266.1,352.8 266.1,971.9 390.3,971.9 390.3,352.8 		"/>
		<rect x="471.3" y="247.3" fill="#028169" width="208.7" height="403.5"/>
		<polygon fill="#028169" points="1218.6,572.4 1218.6,265.2 1129.9,265.2 1129.9,221.8 1006.8,221.8 1006.8,265.2 915.4,265.2 
			915.4,650.8 1110.9,650.8 1110.9,971.6 1364.2,971.6 1364.2,572.4 		"/>
		<polygon fill="#028169" points="1246.4,331.1 1394.7,383.1 1394.7,971.6 1246.4,971.6 		"/>
	</g>
	<g>
		<path fill="#3ECF83" d="M957,453.4c-6.9-10.4-8.7-23.4-5.5-35.6c1.2-4.6,1.8-9.4,1.8-14.3c0-13.1-4.5-25.2-12.1-34.8
			c-8-10.2-11.6-23.1-9.3-35.8c0.5-2.6,0.7-5.3,0.6-8.1c-0.8-18.2-15.7-33.1-33.8-34c-20.4-0.9-37.2,15.3-37.2,35.5
			c0,2,0.2,4,0.5,5.9c2.2,12.9-1,26.3-9.1,36.5c-7.6,9.6-12.1,21.7-12.1,34.8c0,4.9,0.6,9.7,1.8,14.3c3.2,12.3,1.2,25.4-5.8,36
			c-8.2,12.5-12.7,27.7-11.6,44c2.2,35.7,31,64.7,66.7,67.2C934,568,969,534.7,969,493.3C969,478.5,964.6,464.8,957,453.4z"/>
		<line fill="none" stroke="#30328B" stroke-width="3" stroke-miterlimit="10" x1="897.1" y1="348.5" x2="897.1" y2="607.4"/>
		<line fill="none" stroke="#30328B" stroke-width="3" stroke-miterlimit="10" x1="897.1" y1="395.8" x2="923.4" y2="369.4"/>
		<line fill="none" stroke="#30328B" stroke-width="3" stroke-miterlimit="10" x1="897.1" y1="444.1" x2="863.8" y2="410.9"/>
		<line fill="none" stroke="#30328B" stroke-width="3" stroke-miterlimit="10" x1="897.1" y1="503.4" x2="933.4" y2="467.1"/>
	</g>
	<g>
		<path fill="#028169" d="M617,453.4c-6.9-10.4-8.7-23.4-5.5-35.6c1.2-4.6,1.8-9.4,1.8-14.3c0-13.1-4.5-25.2-12.1-34.8
			c-8-10.2-11.6-23.1-9.3-35.8c0.5-2.6,0.7-5.3,0.6-8.1c-0.8-18.2-15.7-33.1-33.8-34c-20.4-0.9-37.2,15.3-37.2,35.5
			c0,2,0.2,4,0.5,5.9c2.2,12.9-1,26.3-9.1,36.5c-7.6,9.6-12.1,21.7-12.1,34.8c0,4.9,0.6,9.7,1.8,14.3c3.2,12.3,1.2,25.4-5.8,36
			c-8.2,12.5-12.7,27.7-11.6,44c2.2,35.7,31,64.7,66.7,67.2C594,568,629,534.7,629,493.3C629,478.5,624.6,464.8,617,453.4z"/>
		<line fill="none" stroke="#30328B" stroke-width="3" stroke-miterlimit="10" x1="557.1" y1="348.5" x2="557.1" y2="607.4"/>
		<line fill="none" stroke="#30328B" stroke-width="3" stroke-miterlimit="10" x1="557.1" y1="395.8" x2="583.4" y2="369.4"/>
		<line fill="none" stroke="#30328B" stroke-width="3" stroke-miterlimit="10" x1="557.1" y1="444.1" x2="523.8" y2="410.9"/>
		<line fill="none" stroke="#30328B" stroke-width="3" stroke-miterlimit="10" x1="557.1" y1="503.4" x2="593.4" y2="467.1"/>
	</g>
	<g>
		<path fill="#028169" d="M389.3,814.1c-6.9-10.4-8.7-23.4-5.5-35.6c1.2-4.6,1.8-9.4,1.8-14.3c0-13.1-4.5-25.2-12.1-34.8
			c-8-10.2-11.6-23.1-9.3-35.8c0.5-2.6,0.7-5.3,0.6-8.1c-0.8-18.2-15.7-33.1-33.8-34c-20.4-0.9-37.2,15.3-37.2,35.5
			c0,2,0.2,4,0.5,5.9c2.2,12.9-1,26.3-9.1,36.5c-7.6,9.6-12.1,21.7-12.1,34.8c0,4.9,0.6,9.7,1.8,14.3c3.2,12.3,1.2,25.4-5.8,36
			c-8.2,12.5-12.7,27.7-11.6,44c2.2,35.7,31,64.7,66.7,67.2c42.1,2.9,77.1-30.4,77.1-71.8C401.3,839.2,396.9,825.5,389.3,814.1z"/>
		<line fill="none" stroke="#30328B" stroke-width="3" stroke-miterlimit="10" x1="329.4" y1="709.2" x2="329.4" y2="968"/>
		<line fill="none" stroke="#30328B" stroke-width="3" stroke-miterlimit="10" x1="329.4" y1="756.4" x2="355.7" y2="730.1"/>
		<line fill="none" stroke="#30328B" stroke-width="3" stroke-miterlimit="10" x1="329.4" y1="804.8" x2="296.1" y2="771.5"/>
		<line fill="none" stroke="#30328B" stroke-width="4" stroke-miterlimit="10" x1="329.4" y1="864.1" x2="365.7" y2="827.8"/>
	</g>
	<g>
		<path fill="#1B1B3A" d="M793,387.4l11.5-16.1l-43.8-42.4c-9.2-8.9-24.2-7.5-31.7,2.9l-3.4,4.8C751.5,356.9,775.4,378.1,793,387.4z
			"/>
	</g>
	<path fill="#1B1B3A" d="M738.8,349.9l-49.2-1.7c-7.4-0.3-13.2-6.5-15.2-13.9l0.5-13.4l64.9,2.2c7.4,0.3,13.2,6.5,13,13.9l0,0
		C752.5,344.4,746.2,350.2,738.8,349.9z"/>
	<g>
		<path fill="#028169" d="M1420,813.4c-6.9-10.4-8.7-23.4-5.5-35.6c1.2-4.6,1.8-9.4,1.8-14.3c0-13.1-4.5-25.2-12.1-34.8
			c-8-10.2-11.6-23.1-9.3-35.8c0.5-2.6,0.7-5.3,0.6-8.1c-0.8-18.2-15.7-33.1-33.8-34c-20.4-0.9-37.2,15.3-37.2,35.5
			c0,2,0.2,4,0.5,5.9c2.2,12.9-1,26.3-9.1,36.5c-7.6,9.6-12.1,21.7-12.1,34.8c0,4.9,0.6,9.7,1.8,14.3c3.2,12.3,1.2,25.4-5.8,36
			c-8.2,12.5-12.7,27.7-11.6,44c2.2,35.7,31,64.7,66.7,67.2c42.1,2.9,77.1-30.4,77.1-71.8C1432,838.5,1427.6,824.8,1420,813.4z"/>
		<line fill="none" stroke="#30328B" stroke-width="3" stroke-miterlimit="10" x1="1360.1" y1="708.5" x2="1360.1" y2="967.4"/>
		<line fill="none" stroke="#30328B" stroke-width="3" stroke-miterlimit="10" x1="1360.1" y1="755.8" x2="1386.4" y2="729.4"/>
		<line fill="none" stroke="#30328B" stroke-width="3" stroke-miterlimit="10" x1="1360.1" y1="804.1" x2="1326.8" y2="770.9"/>
		<line fill="none" stroke="#30328B" stroke-width="3" stroke-miterlimit="10" x1="1360.1" y1="863.4" x2="1396.4" y2="827.1"/>
	</g>
	<g>
		<path fill="#3ECF83" d="M1312.5,813.4c-6.9-10.4-8.7-23.4-5.5-35.6c1.2-4.6,1.8-9.4,1.8-14.3c0-13.1-4.5-25.2-12.1-34.8
			c-8-10.2-11.6-23.1-9.3-35.8c0.5-2.6,0.7-5.3,0.6-8.1c-0.8-18.2-15.7-33.1-33.8-34c-20.4-0.9-37.2,15.3-37.2,35.5
			c0,2,0.2,4,0.5,5.9c2.2,12.9-1,26.3-9.1,36.5c-7.6,9.6-12.1,21.7-12.1,34.8c0,4.9,0.6,9.7,1.8,14.3c3.2,12.3,1.2,25.4-5.8,36
			c-8.2,12.5-12.7,27.7-11.6,44c2.2,35.7,31,64.7,66.7,67.2c42.1,2.9,77.1-30.4,77.1-71.8C1324.5,838.5,1320.1,824.8,1312.5,813.4z"
			/>
		<line fill="none" stroke="#30328B" stroke-width="3" stroke-miterlimit="10" x1="1252.5" y1="708.5" x2="1252.5" y2="967.4"/>
		<line fill="none" stroke="#30328B" stroke-width="3" stroke-miterlimit="10" x1="1252.5" y1="755.8" x2="1278.9" y2="729.4"/>
		<line fill="none" stroke="#30328B" stroke-width="3" stroke-miterlimit="10" x1="1252.5" y1="804.1" x2="1219.3" y2="770.9"/>
		<line fill="none" stroke="#30328B" stroke-width="3" stroke-miterlimit="10" x1="1252.5" y1="863.4" x2="1288.9" y2="827.1"/>
	</g>
	<g>
		<path fill="#E6E6FF" stroke="#9087F4" stroke-width="3" stroke-miterlimit="10" d="M428.3,906.9c-9,0-16.4-7.3-16.4-16.4V381.4
			c0-9,7.3-16.4,16.4-16.4h750.6c9,0,16.4,7.3,16.4,16.4v509.2c0,9-7.3,16.4-16.4,16.4H428.3z"/>
		<path fill="#2F3F88" d="M454.5,879.8c-5.4,0-9.8-4.4-9.8-9.8V413.2c0-5.4,4.4-9.8,9.8-9.8h698.3c5.4,0,9.8,4.4,9.8,9.8V870
			c0,5.4-4.4,9.8-9.8,9.8H454.5z"/>
		<path fill="#505089" d="M450.3,870V413.2c0-2.3,1.9-4.2,4.2-4.2h698.3c2.3,0,4.2,1.9,4.2,4.2V870c0,2.3-1.9,4.2-4.2,4.2H454.5
			C452.2,874.2,450.3,872.4,450.3,870z"/>
		<path fill="none" stroke="#9087F4" stroke-width="3" stroke-miterlimit="10" d="M1109.2,451H500.8c-10.4,0-18.8,8.4-18.8,18.8
			v344.5c0,10.4,8.4,18.8,18.8,18.8h608.5c10.4,0,18.8-8.4,18.8-18.8V469.8C1128,459.4,1119.6,451,1109.2,451z"/>
		<path fill="#505089" d="M1189.2,971.6H418.1c-28.4,0-53.7-17.9-63.1-44.7l-7.4-21.1h912.2l-7.4,21.1
			C1242.9,953.7,1217.6,971.6,1189.2,971.6z"/>
		<path fill="#FFFFFF" d="M347.6,905.8h403v6.7H350.2C349.2,910.3,348.4,908,347.6,905.8z"/>
		<path fill="#FFFFFF" d="M1259.7,905.8c-0.8,2.3-1.7,4.5-2.6,6.7H856.7v-6.7H1259.7z"/>
		<path fill="#6456C4" d="M750.5,904.6v1.1v6.7v15.8c0,8.1,6.6,14.7,14.7,14.7H842c8.1,0,14.7-6.6,14.7-14.7v-15.8v-6.7v-1.1H750.5z
			"/>
	</g>
	<g>
		<path fill="#FFFFFF" d="M370,722.6l-86.9-0.4c-7.8,0-14.1,6.2-14.1,14l-0.6,126l27-26.8l74.1,0.3c7.8,0,14.1-6.2,14.1-14l0.4-85
			C384,728.9,377.8,722.6,370,722.6z"/>
		<g>
			<g>
				<path fill="#FFCCEA" d="M363.3,763l-10.3,0v0l-18.9,0.1l1.1-4c1.4-4.9,1.2-10-0.4-14.8l-1.1-3.2c-0.7-2.2-2.8-3.6-5.1-3.6
					c-3,0-5.3,2.4-5.3,5.4l0,6.4c0,5.2-2.1,10.2-6,13.8l-7.7,7.7l0.1,31.4l3.8,0l2,1.8c1.3,1.2,3,1.8,4.7,1.8l15.9-0.1l17-0.1l2,0
					c3,0,5.3-2.4,5.3-5.4c0-3-2.4-5.3-5.4-5.3l3.2,0c3,0,5.3-2.4,5.3-5.4c0-3-2.4-5.3-5.4-5.3l2,0c3,0,5.3-2.4,5.3-5.4
					c0-3-2.4-5.3-5.4-5.3l3,0c3,0,5.3-2.4,5.3-5.4l0,0C368.6,765.3,366.2,762.9,363.3,763z"/>
				
					<rect x="280.5" y="769.4" transform="matrix(1 -4.211971e-03 4.211971e-03 1 -3.3195 1.2506)" fill="#FFC587" width="29.4" height="38.7"/>
				<path fill="#FFFFFF" d="M298.1,799.5c0,1.9,1.6,3.5,3.5,3.5c1.9,0,3.5-1.6,3.5-3.5c0-1.9-1.6-3.5-3.5-3.5
					C299.6,796,298.1,797.6,298.1,799.5z"/>
			</g>
		</g>
	</g>
	<g>
		<g>
			<path fill="#FFFFFF" d="M938.4,169.7l-151.2-27.6c-8.9-1.6-17.5,4.3-19.1,13.2l-11.4,62.6c-1.6,8.9,4.3,17.5,13.2,19.1l35.2,6.4
				l-5.6,30.9l36.5-25.3l85.1,15.5c8.9,1.6,17.5-4.3,19.1-13.2l11.4-62.6C953.2,179.9,947.3,171.4,938.4,169.7z"/>
		</g>
		<g>
			<polygon fill="#32325D" points="795.9,205.2 779.4,210.4 785.3,194.2 775.4,180.2 792.6,180.8 802.8,167 807.6,183.5 823.9,189 
				809.6,198.6 809.4,215.9 			"/>
			<polygon fill="#32325D" points="852,215.5 835.5,220.6 841.5,204.5 831.5,190.4 848.7,191 859,177.2 863.7,193.8 880,199.3 
				865.7,208.9 865.5,226.1 			"/>
			<polygon fill="#32325D" points="908.1,225.7 891.7,230.9 897.6,214.7 887.6,200.7 904.8,201.3 915.1,187.5 919.8,204 
				936.1,209.5 921.8,219.1 921.7,236.3 			"/>
		</g>
	</g>
	<g>
		<path opacity="0.4" fill="#6456C4" d="M1046.4,534.3H586.5c-12.2,0-22.1,9.9-22.1,22.1v265.2c0,12.2,9.9,22.1,22.1,22.1h459.8
			c12.2,0,22.1-9.9,22.1-22.1V556.4C1068.4,544.2,1058.5,534.3,1046.4,534.3z"/>
		<path fill="#BCB6F9" d="M1033.6,524.9H573.7c-12.2,0-22.1,9.9-22.1,22.1v265.2c0,12.2,9.9,22.1,22.1,22.1h459.8
			c12.2,0,22.1-9.9,22.1-22.1V546.9C1055.6,534.7,1045.7,524.9,1033.6,524.9z"/>
		<g>
			
				<ellipse transform="matrix(0.7071 -0.7071 0.7071 0.7071 -257.1061 658.2241)" fill="#E6E6FF" stroke="#9087F4" stroke-width="3" stroke-miterlimit="10" cx="666" cy="639.5" rx="77.1" ry="77.1"/>
			<path fill="#9087F4" d="M666,716.6c17.7,0,34-6,47.1-16c-7.4-18.7-25.7-32-47.1-32h0c-21.4,0-39.6,13.2-47.1,32
				C632,710.6,648.3,716.6,666,716.6z"/>
			<g>
				<g>
					<path fill="#171754" d="M702.6,622.6c0,17.6-14.2,31.8-31.8,31.8c-10.6,0-19.9-5.2-25.7-13.1c-3.8-5.2-6.1-11.7-6.1-18.7
						c0-12.9,7.6-24,18.6-29c4-1.8,8.5-2.8,13.1-2.8c4.5,0,8.7,0.9,12.6,2.6C694.7,598.3,702.6,609.5,702.6,622.6z"/>
					<path fill="#171754" d="M672.5,597.9h-32.3c-6.6,0-11.9,5.3-11.9,11.9l0,0c0,6.6,5.3,11.9,11.9,11.9h32.3V597.9z"/>
					<path fill="#171754" d="M679.7,617h-34.3c-7,0-12.7,5.7-12.7,12.7l0,0c0,7,5.7,12.7,12.7,12.7h34.3V617z"/>
					<path fill="#F2A5C7" d="M665.9,608.9L665.9,608.9c-15,0-27.4,12.3-27.4,27.4v18.6c0,15,12.3,27.4,27.4,27.4h0
						c15,0,27.4-12.3,27.4-27.4v-18.6C693.3,621.2,680.9,608.9,665.9,608.9z"/>
					<path fill="#171754" d="M657.2,609.7L657.2,609.7c-10.4,3.5-18.1,13.2-18.6,24.7c0.5-8.4,7.5-15,16-15c4.2,0,8.1,1.7,11,4.4
						c0,0,0.1,0.1,0.1,0.1c5.4,5.1,12.7,8.3,20.7,8.3c2.3,0,4.4-0.3,6.6-0.7C690.4,615,673.5,604.2,657.2,609.7z"/>
				</g>
				<path fill="#FFFFFF" d="M649.5,655.9c1.8,7.3,8.5,12.8,16.4,12.8c7.9,0,14.5-5.4,16.4-12.8H649.5z"/>
			</g>
		</g>
		<rect x="651" y="519.9" fill="#6456C4" width="310.4" height="5"/>
		<g>
			<polygon fill="#9087F4" points="624,794.7 603.2,805.6 607.2,782.5 590.3,766.1 613.6,762.7 624,741.7 634.3,762.7 657.6,766.1 
				640.8,782.5 644.7,805.6 			"/>
			<polygon fill="#9087F4" points="713.8,794.7 693,805.6 697,782.5 680.2,766.1 703.4,762.7 713.8,741.7 724.2,762.7 747.4,766.1 
				730.6,782.5 734.6,805.6 			"/>
			<polygon fill="#9087F4" points="803.6,794.7 782.9,805.6 786.8,782.5 770,766.1 793.2,762.7 803.6,741.7 814,762.7 837.3,766.1 
				820.4,782.5 824.4,805.6 			"/>
			<polygon fill="#9087F4" points="893.5,794.7 872.7,805.6 876.7,782.5 859.9,766.1 883.1,762.7 893.5,741.7 903.9,762.7 
				927.1,766.1 910.3,782.5 914.3,805.6 			"/>
			<g>
				<polygon fill="#AEA7FA" points="983.3,794.7 962.5,805.6 966.5,782.5 949.7,766.1 972.9,762.7 983.3,741.7 993.7,762.7 
					1016.9,766.1 1000.1,782.5 1004.1,805.6 				"/>
				<polygon fill="#9087F4" points="972.9,762.7 949.7,766.1 966.5,782.5 962.5,805.6 983.3,794.7 983.3,741.7 				"/>
			</g>
		</g>
		<g>
			<path fill="#AEA7FA" d="M976.4,562H778.3c-4.4,0-8,3.6-8,8c0,4.4,3.6,8,8,8h198.2V562z"/>
			<path fill="none" stroke="#9087F4" stroke-width="3" stroke-miterlimit="10" d="M1017,577.9H778.3c-4.4,0-8-3.6-8-8v0
				c0-4.4,3.6-8,8-8H1017c4.4,0,8,3.6,8,8v0C1024.9,574.3,1021.4,577.9,1017,577.9z"/>
			<path fill="#AEA7FA" d="M924,604.6H778.3c-4.4,0-8,3.6-8,8v0c0,4.4,3.6,8,8,8H924V604.6z"/>
			<path fill="none" stroke="#9087F4" stroke-width="3" stroke-miterlimit="10" d="M1017,620.5H778.3c-4.4,0-8-3.6-8-8l0,0
				c0-4.4,3.6-8,8-8H1017c4.4,0,8,3.6,8,8l0,0C1024.9,616.9,1021.4,620.5,1017,620.5z"/>
			<path fill="#AEA7FA" d="M1006.5,647.1H778.3c-4.4,0-8,3.6-8,8c0,4.4,3.6,8,8,8h228.3V647.1z"/>
			<path fill="none" stroke="#9087F4" stroke-width="3" stroke-miterlimit="10" d="M1017,663H778.3c-4.4,0-8-3.6-8-8l0,0
				c0-4.4,3.6-8,8-8H1017c4.4,0,8,3.6,8,8l0,0C1024.9,659.5,1021.4,663,1017,663z"/>
			<path fill="#AEA7FA" d="M989.8,689.7H778.3c-4.4,0-8,3.6-8,8s3.6,8,8,8h211.5V689.7z"/>
			<path fill="none" stroke="#9087F4" stroke-width="3" stroke-miterlimit="10" d="M1017,705.6H778.3c-4.4,0-8-3.6-8-8l0,0
				c0-4.4,3.6-8,8-8H1017c4.4,0,8,3.6,8,8l0,0C1024.9,702,1021.4,705.6,1017,705.6z"/>
		</g>
	</g>
	
		<line fill="none" stroke="#4424AF" stroke-width="4" stroke-linecap="round" stroke-miterlimit="10" x1="127.8" y1="971.6" x2="1462.9" y2="971.6"/>
	
		<line fill="none" stroke="#4424AF" stroke-width="4" stroke-linecap="round" stroke-miterlimit="10" x1="1289.3" y1="971.6" x2="1319.4" y2="971.6"/>
	<g>
		<path fill="#FFFFFF" d="M228.2,443.8h-36.7c-4.8,0-8.7-3.9-8.7-8.7v0c0-4.8,3.9-8.7,8.7-8.7h36.7c4.8,0,8.7,3.9,8.7,8.7v0
			C236.9,439.8,233,443.8,228.2,443.8z"/>
		<path fill="#FFFFFF" d="M230.5,473.5H223c-4.8,0-8.7-3.9-8.7-8.7v0c0-4.8,3.9-8.7,8.7-8.7h7.5c4.8,0,8.7,3.9,8.7,8.7v0
			C239.2,469.6,235.3,473.5,230.5,473.5z"/>
	</g>
	<g>
		<path fill="#3ECF83" d="M252.9,821.9c-6.9-10.4-8.7-23.4-5.5-35.6c1.2-4.6,1.8-9.4,1.8-14.3c0-13.1-4.5-25.2-12.1-34.8
			c-8-10.2-11.6-23.1-9.3-35.8c0.5-2.6,0.7-5.3,0.6-8.1c-0.8-18.2-15.7-33.1-33.8-34c-20.4-0.9-37.2,15.3-37.2,35.5
			c0,2,0.2,4,0.5,5.9c2.2,12.9-1,26.3-9.1,36.5c-7.6,9.6-12.1,21.7-12.1,34.8c0,4.9,0.6,9.7,1.8,14.3c3.2,12.3,1.2,25.4-5.8,36
			c-8.2,12.5-12.7,27.7-11.6,44c2.2,35.7,31,64.7,66.7,67.2c42.1,2.9,77.1-30.4,77.1-71.8C265,847,260.5,833.3,252.9,821.9z"/>
		<line fill="none" stroke="#30328B" stroke-width="3" stroke-miterlimit="10" x1="193" y1="717" x2="193" y2="975.8"/>
		<line fill="none" stroke="#30328B" stroke-width="3" stroke-miterlimit="10" x1="193" y1="764.2" x2="219.3" y2="737.9"/>
		<line fill="none" stroke="#30328B" stroke-width="3" stroke-miterlimit="10" x1="193" y1="812.6" x2="159.7" y2="779.3"/>
		<line fill="none" stroke="#30328B" stroke-width="4" stroke-miterlimit="10" x1="193" y1="871.9" x2="229.3" y2="835.6"/>
	</g>
	<g>
		<path fill="#FFFFFF" d="M583.2,176.4h18.4c4,0,7.2,3.2,7.2,7.2v0c0,4-3.2,7.2-7.2,7.2h-18.4c-4,0-7.2-3.2-7.2-7.2v0
			C576,179.6,579.2,176.4,583.2,176.4z"/>
		<path fill="#FFFFFF" d="M530.8,169.8v-1.2c0-3.6,2.9-6.5,6.5-6.5h9.5c3.9,0,7.1-3.2,7.1-7.1l0,0c0-3.9-3.2-7.1-7.1-7.1h-63.1
			c-4.3,0-7.7,3.4-7.7,7.7l0,0c0,4.2,3.4,7.7,7.7,7.7H497c3.6,0,6.5,2.9,6.5,6.5l0,0c0,3.6-2.9,6.5-6.5,6.5h-41.3
			c-4,0-7.3,3.3-7.3,7.3l0,0c0,4,3.3,7.3,7.3,7.3h102.1c4,0,7.3-3.3,7.3-7.3l0,0c0-4-3.3-7.3-7.3-7.3h-20.5
			C533.7,176.3,530.8,173.4,530.8,169.8z"/>
	</g>
	<g>
		<path fill="#FFFFFF" d="M1070.5,173.1h36.7c4.8,0,8.7,3.9,8.7,8.7v0c0,4.8-3.9,8.7-8.7,8.7h-36.7c-4.8,0-8.7-3.9-8.7-8.7v0
			C1061.8,177,1065.7,173.1,1070.5,173.1z"/>
		<path fill="#FFFFFF" d="M1135.1,173.1h7.5c4.8,0,8.7,3.9,8.7,8.7v0c0,4.8-3.9,8.7-8.7,8.7h-7.5c-4.8,0-8.7-3.9-8.7-8.7v0
			C1126.4,177,1130.3,173.1,1135.1,173.1z"/>
	</g>
	<g>
		<g>
			<g>
				<polygon fill="#D481A6" points="498.2,516.2 491.2,483.1 474.8,493.2 488.8,529.2 				"/>
				<path fill="#D481A6" d="M493.1,519.9l27.9-36.3l15.6-5.5l1.9,1.6v7.3c0.5,2.9-7.4,7.5-15.6,8.8L509.1,523L493.1,519.9z"/>
				<path fill="#D481A6" d="M519.5,489l1-7.9c0.1-1.1,0.8-2,1.8-2.4l6.9-3.2c0.7-0.3,1.6,0.1,1.8,0.8l0,0c0.1,0.5,0,1-0.4,1.3
					l-5.1,4.1c1.4,4.7-0.1,7.5-3.6,9.5L519.5,489z"/>
				<g>
					<path fill="#B06350" d="M538.3,481.2h3.5v-0.4c0-1.7-1.4-3.2-3.2-3.2h-0.4c-1,0-1.8,0.8-1.8,1.8l0,0
						C536.5,480.4,537.3,481.2,538.3,481.2z"/>
					<path fill="#B06350" d="M538.3,484.8h3.5v-3.6h-3.5c-1,0-1.8,0.8-1.8,1.8l0,0C536.5,484,537.3,484.8,538.3,484.8z"/>
					<path fill="#B06350" d="M538.3,488.4h3.5v-3.6h-3.5c-1,0-1.8,0.8-1.8,1.8l0,0C536.5,487.6,537.3,488.4,538.3,488.4z"/>
					<path fill="#B06350" d="M539.1,491.2h-0.5c1.7,0,3.2-1.4,3.2-3.2l0,0h-2.7c-0.9,0-1.6,0.7-1.6,1.6l0,0
						C537.5,490.5,538.2,491.2,539.1,491.2z"/>
				</g>
			</g>
			<g>
				<polygon fill="#FFFFFF" points="577.7,612.6 546.8,587.4 508.2,597.1 533.1,536.3 580.9,546.9 				"/>
				
					<ellipse transform="matrix(0.9851 -0.1718 0.1718 0.9851 -81.3145 104.1923)" fill="#3ECF8E" cx="561.4" cy="522" rx="52.5" ry="52.5"/>
				<polygon fill="#FFFFFF" points="557.5,539.6 534.8,545.7 543.7,524 530.9,504.4 554.3,506.1 569,487.9 574.6,510.7 596.5,519 
					576.5,531.3 575.4,554.8 				"/>
			</g>
			<polygon fill="#F2A5C7" points="492.8,678.8 492.8,667.5 478.5,667.5 479.6,679 			"/>
			<g>
				<polygon fill="#F2A5C7" points="440.3,635.8 431.9,646 440.2,655.6 449.6,646.9 				"/>
				<path fill="#171754" d="M440.9,656.3L440.9,656.3c-1.1,2.1-1.3,4.6-0.8,6.9l4.9,19.6c0.6,2.6-0.2,5.3-2.2,7l-1.7,1.5l-23.9-32.8
					c3.7-5.7,7.9-11,14.4-12.8L440.9,656.3z"/>
				
					<line fill="none" stroke="#FFFFFF" stroke-width="1.0903" stroke-linecap="round" stroke-miterlimit="10" x1="433.8" y1="660" x2="439.9" y2="660.1"/>
				
					<line fill="none" stroke="#FFFFFF" stroke-width="1.0903" stroke-linecap="round" stroke-miterlimit="10" x1="435.5" y1="664.8" x2="440.2" y2="663.4"/>
				
					<line fill="none" stroke="#FFFFFF" stroke-width="1.0903" stroke-linecap="round" stroke-miterlimit="10" x1="437.5" y1="669.1" x2="441.3" y2="668"/>
			</g>
			<path fill="#D8B7A0" d="M489.6,557.2l3.7,45c0.3,4-1.2,7.9-4.1,10.6l-42.8,39.4l-11.1-12.8c10.7-17.6,22.1-32.4,32.2-43.4
				l-21-40.3l29.5-3.1L489.6,557.2z"/>
			<g>
				<path fill="#F49B76" d="M444.7,631.9l-1.1-0.7c4.1-6.7,8.1-11.6,10.8-14.5l1,0.9C452.7,620.4,448.7,625.3,444.7,631.9z"/>
			</g>
			<path fill="#F49B76" d="M467.6,596l-17.9-34.4l22.4-0.2l17,51.6l-19.3,17.8c-0.4-2.5-0.8-5-1.2-7.7c-0.6-4-2.2-7.8-4.7-11
				L459,606C461.9,602.4,464.8,599,467.6,596z"/>
			<path fill="#F8D9C2" d="M480,558.6l12.2,54.2l2.5,55h-17c-5.2-21.4-6.8-34.3-7.6-54.2l-21-33c-4.2-7.6-5.2-16.6-2.6-24.9l0,0
				L480,558.6z"/>
			<g>
				<g>
					<rect x="483.8" y="611.1" fill="#F49B76" width="5.5" height="1.3"/>
				</g>
				<g>
					<rect x="483.4" y="615.2" fill="#F49B76" width="6.2" height="1.3"/>
				</g>
			</g>
			<g>
				
					<rect x="486.4" y="570.8" transform="matrix(0.9755 -0.2199 0.2199 0.9755 -117.8683 121.5744)" fill="#F49B76" width="1.3" height="38.7"/>
			</g>
			<polygon fill="#F49B76" points="475.8,672.9 495.2,672.9 495.2,667.8 475.8,667.8 			"/>
			<g>
				<path fill="#171754" d="M493.4,678.8L493.4,678.8c0,2,1.2,3.7,3,4.5l19.2,7.6c2.5,1,4.2,3.2,4.4,5.9l0.2,2.3l-41.1,0.1
					c-2.5-6.3-2.8-12.4,0.2-16.6V679L493.4,678.8z"/>
				<g>
					
						<line fill="none" stroke="#FFFFFF" stroke-width="1.0903" stroke-linecap="round" stroke-miterlimit="10" x1="492.2" y1="687.6" x2="495.6" y2="682.7"/>
					
						<line fill="none" stroke="#FFFFFF" stroke-width="1.0903" stroke-linecap="round" stroke-miterlimit="10" x1="497.1" y1="688.9" x2="498.6" y2="684.2"/>
					
						<line fill="none" stroke="#FFFFFF" stroke-width="1.0903" stroke-linecap="round" stroke-miterlimit="10" x1="501.8" y1="689.6" x2="503" y2="685.8"/>
				</g>
			</g>
			<polygon fill="#F49B76" points="434.2,638.6 446.5,652.7 450.4,649.4 437.2,634.4 			"/>
			<path fill="#8648A8" d="M484.2,466.9l0.8,0.6c10,4.6,9.8,13.7,8.7,22.1c-2.4,18.8-5.7,54.8-4.1,67.6c-26.9,4.5-34.4-3.7-44,0
				c-0.8-22.9,6.6-87,10-89.2C470.1,458.4,484.2,466.9,484.2,466.9z"/>
			<g>
				<defs>
					<path id="SVGID_1_" d="M484.2,466.9l0.8,0.6c10,4.6,9.8,13.7,8.7,22.1c-2.4,18.8-5.7,54.8-4.1,67.6c-26.9,4.5-34.4-3.7-44,0
						c-0.8-22.9,6.6-87,10-89.2C470.1,458.4,484.2,466.9,484.2,466.9z"/>
				</defs>
				<use xlink:href="#SVGID_1_"  overflow="visible" fill="#6C2196"/>
				<clipPath id="SVGID_2_">
					<use xlink:href="#SVGID_1_"  overflow="visible"/>
				</clipPath>
				<g clip-path="url(#SVGID_2_)">
					
						<rect x="417.5" y="456" transform="matrix(-1 -1.224647e-16 1.224647e-16 -1 935.0796 913.6633)" fill="#FFFFFF" width="100.1" height="1.7"/>
					
						<rect x="417.5" y="465.6" transform="matrix(-1 -1.224647e-16 1.224647e-16 -1 935.0796 932.8139)" fill="#8648A8" width="100.1" height="1.7"/>
					
						<rect x="417.5" y="475.1" transform="matrix(-1 -1.224647e-16 1.224647e-16 -1 935.0796 951.9647)" fill="#8648A8" width="100.1" height="1.7"/>
					
						<rect x="417.5" y="484.7" transform="matrix(-1 -1.224647e-16 1.224647e-16 -1 935.0796 971.1153)" fill="#8648A8" width="100.1" height="1.7"/>
					
						<rect x="417.5" y="494.3" transform="matrix(-1 -1.224647e-16 1.224647e-16 -1 935.0796 990.2661)" fill="#8648A8" width="100.1" height="1.7"/>
					
						<rect x="417.5" y="503.9" transform="matrix(-1 -1.224647e-16 1.224647e-16 -1 935.0796 1009.4168)" fill="#8648A8" width="100.1" height="1.7"/>
					
						<rect x="417.5" y="513.4" transform="matrix(-1 -1.224647e-16 1.224647e-16 -1 935.0796 1028.5675)" fill="#8648A8" width="100.1" height="1.7"/>
					
						<rect x="417.5" y="523" transform="matrix(-1 -1.224647e-16 1.224647e-16 -1 935.0796 1047.7183)" fill="#8648A8" width="100.1" height="1.7"/>
					
						<rect x="417.5" y="532.6" transform="matrix(-1 -1.224647e-16 1.224647e-16 -1 935.0796 1066.8689)" fill="#8648A8" width="100.1" height="1.7"/>
					
						<rect x="417.5" y="542.2" transform="matrix(-1 -1.224647e-16 1.224647e-16 -1 935.0796 1086.0197)" fill="#8648A8" width="100.1" height="1.7"/>
					
						<rect x="417.5" y="551.7" transform="matrix(-1 -1.224647e-16 1.224647e-16 -1 935.0796 1105.1703)" fill="#8648A8" width="100.1" height="1.7"/>
					
						<rect x="417.5" y="561.3" transform="matrix(-1 -1.224647e-16 1.224647e-16 -1 935.0796 1124.321)" fill="#FFFFFF" width="100.1" height="1.7"/>
					
						<rect x="417.5" y="570.9" transform="matrix(-1 -1.224647e-16 1.224647e-16 -1 935.0796 1143.4717)" fill="#FFFFFF" width="100.1" height="1.7"/>
				</g>
			</g>
			<path fill="#F2A5C7" d="M474.1,502.5l0.8,14.4c0,0.6,0.6,1.2,1.2,1.2c10.4,0.4,22.6,2.2,32.4,3.9l-1.4,9.6h-38.6
				c-4.2,0-7.8-3-8.5-7.1c-1.6-9.2-3-17-2.6-26.6L474.1,502.5z"/>
			<g>
				<path fill="#8648A8" d="M457.2,501.8c0-1.3,0-2.6,0.1-3.9l16.8,2.3l0.2,3.6L457.2,501.8z"/>
			</g>
			<path fill="none" stroke="#FFFFFF" stroke-width="1.0903" stroke-miterlimit="10" d="M467.7,566.4c-5-0.8-9.3-0.8-12.9,0"/>
			<path fill="#F2A5C7" d="M517.9,521.1l8.1,4.4c0.7,0.4,1,1.2,0.6,1.9l0,0c-0.3,0.6-1.1,1-1.8,0.8l-8.6-2.7L517.9,521.1z"/>
			<path fill="#F2A5C7" d="M508.4,522l7.5-1.1c1.5-0.2,3.1,0.3,4.1,1.4l3.7,4c2,2.1,2.5,5.3,1.2,8l0,0c-0.7,1.5-2.5,2.1-3.9,1.3
				l-7.8-4H507L508.4,522z"/>
		</g>
		<g>
			<path fill="#171754" d="M463.8,451.7h4v-33.8l0,0c-4.7,0-8.5,3.8-8.5,8.5v20.8C459.3,449.6,461.4,451.7,463.8,451.7z"/>
			<path fill="#8648A8" d="M474.3,477.4c5.9,0,10.6-4.8,10.6-10.6V466c-1-0.3-2.1-0.5-3.3-0.5h-18v1.3
				C463.7,472.7,468.5,477.4,474.3,477.4z"/>
			<path fill="#D481A6" d="M474.3,475.2L474.3,475.2c-4.6,0-8.4-3.7-8.4-8.4v-7.4h16.7v7.4C482.7,471.4,479,475.2,474.3,475.2z"/>
			<path fill="#171754" d="M496.8,431.6c0,9.9-8.1,18-18,18c-6,0-11.3-2.9-14.6-7.4c-2.2-3-3.4-6.6-3.4-10.6
				c0-7.3,4.3-13.6,10.6-16.4c2.3-1,4.8-1.6,7.4-1.6c2.5,0,4.9,0.5,7.1,1.5C492.4,417.9,496.8,424.2,496.8,431.6z"/>
			<path fill="#D481A6" d="M491.6,439.6h2.2c1.8,0,3.2,1.4,3.2,3.2v1.9c0,1.8-1.4,3.2-3.2,3.2h-2.2V439.6z"/>
			<path fill="#F2A5C7" d="M479.1,424.2L479.1,424.2c-8,0-14.6,6.6-14.6,14.6v13.9c0,8,6.6,14.6,14.6,14.6h0c8,0,14.6-6.6,14.6-14.6
				v-13.9C493.7,430.8,487.1,424.2,479.1,424.2z"/>
			<g>
				<path fill="#171754" d="M476.7,423.3L476.7,423.3c-3.3,1.1-11.5,4.1-12.4,7.4c-2.4,8.5,2.4,3.5,2.2,6.1c0.3-4.6,4.1-8.2,8.7-8.2
					c2.3,0,4.4,0.9,6,2.4c0,0,0,0,0.1,0.1c3,2.8,6.9,4.5,11.3,4.5c0.1,0,0.2,0,0.4,0c1.8,0,3-1.8,2.4-3.5
					C492.6,424.9,484.5,420.7,476.7,423.3z"/>
				<circle fill="#171754" cx="492" cy="427" r="8"/>
				<path fill="#231F20" d="M463.8,435.1c0-0.1,0-0.2,0-0.3C463.8,434.9,463.8,435,463.8,435.1L463.8,435.1z"/>
			</g>
			<path fill="#140D2B" d="M476.9,440.4L476.9,440.4c-0.7,0-1.3,0.6-1.3,1.3v0.4c0,0.7,0.6,1.3,1.3,1.3l0,0c0.7,0,1.3-0.6,1.3-1.3
				v-0.4C478.2,440.9,477.6,440.4,476.9,440.4z"/>
			<path fill="#140D2B" d="M489,440.4L489,440.4c-0.7,0-1.3,0.6-1.3,1.3v0.4c0,0.7,0.6,1.3,1.3,1.3l0,0c0.7,0,1.3-0.6,1.3-1.3v-0.4
				C490.3,440.9,489.7,440.4,489,440.4z"/>
			
				<rect x="474.8" y="436.8" transform="matrix(0.9954 -9.588326e-02 9.588326e-02 0.9954 -39.7345 47.7408)" fill="#140D2B" width="4.2" height="1"/>
			
				<rect x="486.5" y="436.8" transform="matrix(-0.9954 -9.588555e-02 9.588555e-02 -0.9954 933.0901 919.4807)" fill="#140D2B" width="4.2" height="1"/>
			<path fill="#FFFFFF" d="M474.8,452.5c0.8,3.3,3.8,5.7,7.4,5.7c3.6,0,6.5-2.4,7.4-5.7H474.8z"/>
			<path fill="#F2A5C7" d="M465.9,439.6h-2.2c-1.8,0-3.2,1.4-3.2,3.2v1.9c0,1.8,1.4,3.2,3.2,3.2h2.2V439.6z"/>
			<path fill="#171754" d="M466.9,444.8h-0.4v-10.4h-3.8v6.2C462.7,443,464.6,444.8,466.9,444.8z"/>
		</g>
	</g>
	<g>
		<g>
			<g>
				<path fill="#A489FF" d="M1147.8,591.5h-25.7c-22.4,0-40.5,18.1-40.5,40.5v6.2c0,22.4,18.1,40.5,40.5,40.5h5.4l20.3,26v-26l0,0
					c22.4,0,40.5-18.1,40.5-40.5V632C1188.3,609.6,1170.2,591.5,1147.8,591.5z"/>
			</g>
			<g>
				<g>
					<path fill="#FFFFFF" d="M1185.1,624.6h-28.9c-25.2,0-45.6,20.4-45.6,45.6v6.9c0,25.2,20.4,45.6,45.6,45.6h6.1l22.9,29.2v-29.2
						l0,0c25.2,0,45.6-20.4,45.6-45.6v-6.9C1230.7,645,1210.3,624.6,1185.1,624.6z"/>
				</g>
			</g>
			<path fill="#3ECF8E" d="M1139.7,682.3c0,3.3,2.7,6,6,6s6-2.7,6-6s-2.7-6-6-6S1139.7,679,1139.7,682.3z"/>
			<path fill="#3ECF8E" d="M1164.6,682.3c0,3.3,2.7,6,6,6s6-2.7,6-6s-2.7-6-6-6S1164.6,679,1164.6,682.3z"/>
			<path fill="#3ECF8E" d="M1189.5,682.3c0,3.3,2.7,6,6,6s6-2.7,6-6s-2.7-6-6-6S1189.5,679,1189.5,682.3z"/>
		</g>
		<g>
			<g>
				<g>
					<polygon fill="#CA725C" points="1231.3,1041.5 1231.3,1026.4 1250.5,1026.4 1249.1,1041.8 					"/>
					<g>
						<polygon fill="#B06350" points="1301.9,983.7 1313.1,997.5 1301.9,1010.4 1289.3,998.7 						"/>
						<path fill="#171754" d="M1301,1011.3L1301,1011.3c1.4,2.9,1.8,6.1,1,9.2l-6.5,26.4c-0.9,3.5,0.3,7.1,3,9.4l2.3,2l32.1-44.1
							c-4.9-7.7-10.6-14.7-19.3-17.3L1301,1011.3z"/>
						
							<line fill="none" stroke="#FFFFFF" stroke-width="1.0903" stroke-linecap="round" stroke-miterlimit="10" x1="1310.5" y1="1016.2" x2="1302.4" y2="1016.5"/>
						
							<line fill="none" stroke="#FFFFFF" stroke-width="1.0903" stroke-linecap="round" stroke-miterlimit="10" x1="1308.3" y1="1022.7" x2="1302" y2="1020.9"/>
						
							<line fill="none" stroke="#FFFFFF" stroke-width="1.0903" stroke-linecap="round" stroke-miterlimit="10" x1="1305.6" y1="1028.5" x2="1300.4" y2="1027"/>
					</g>
					<path fill="#573D8E" d="M1235.5,878.2l-5,60.5c-0.4,5.3,1.6,10.6,5.5,14.2l57.4,52.9l15-17.2c-14.4-23.7-29.7-43.5-43.3-58.3
						l28.2-54.2l-39.6-4.1L1235.5,878.2z"/>
					<g>
						<path fill="#32325D" d="M1296,978.5l1.5-0.9c-5.5-9-10.9-15.6-14.5-19.5l-1.3,1.2C1285.2,963.1,1290.5,969.6,1296,978.5z"/>
					</g>
					<path fill="#32325D" d="M1265.2,930.3l24.1-46.3l-30.1-0.2l-22.9,69.4l26,23.9c0.6-3.3,1.1-6.8,1.7-10.3
						c0.8-5.4,3-10.5,6.3-14.8l6.4-8.3C1272.8,938.9,1268.9,934.4,1265.2,930.3z"/>
					<path fill="#573D8E" d="M1248.5,880.1l-16.4,72.7l-4.1,78.6h22.8c7.7-33.4,9.8-50.7,10.8-77.5l28.2-44.4
						c5.7-10.2,7-22.3,3.5-33.5l0,0L1248.5,880.1z"/>
					<g>
						<g>
							<rect x="1236" y="950.5" fill="#32325D" width="7.3" height="1.8"/>
						</g>
						<g>
							<rect x="1235.6" y="956.1" fill="#32325D" width="8.4" height="1.8"/>
						</g>
					</g>
					<g>
						
							<rect x="1213" y="921.6" transform="matrix(0.2199 -0.9755 0.9755 0.2199 66.5803 1928.2278)" fill="#32325D" width="52" height="1.8"/>
					</g>
					<polygon fill="#6C2196" points="1253.5,1038.3 1227.4,1038.3 1227.4,1031.5 1253.4,1031.5 					"/>
					<g>
						<path fill="#171754" d="M1230.5,1041.5L1230.5,1041.5c0,2.6-1.6,5-4.1,6l-25.8,10.3c-3.3,1.3-5.6,4.4-5.9,7.9l-0.3,3l55.2,0.1
							c3.4-8.5,3.8-16.7-0.3-22.4v-4.6L1230.5,1041.5z"/>
						<g>
							
								<line fill="none" stroke="#FFFFFF" stroke-width="1.0903" stroke-linecap="round" stroke-miterlimit="10" x1="1232.2" y1="1053.4" x2="1227.5" y2="1046.8"/>
							
								<line fill="none" stroke="#FFFFFF" stroke-width="1.0903" stroke-linecap="round" stroke-miterlimit="10" x1="1225.5" y1="1055.1" x2="1223.5" y2="1048.8"/>
							
								<line fill="none" stroke="#FFFFFF" stroke-width="1.0903" stroke-linecap="round" stroke-miterlimit="10" x1="1219.2" y1="1056.1" x2="1217.6" y2="1051"/>
						</g>
					</g>
					<polygon fill="#6C2196" points="1313.3,991.6 1296.8,1010.5 1291.7,1006 1309.3,985.9 					"/>
				</g>
			</g>
			<g>
				<path fill="#D4D5FD" d="M1226.2,834.9L1226.2,834.9c6.6,0.8,12.6-4.1,13.2-10.8l4.6-56.2l0,0c-9-1-17.1,5.4-18.2,14.4l-5.2,45.4
					C1220.1,831.4,1222.6,834.5,1226.2,834.9z"/>
				<path fill="#D4D5FD" d="M1194.9,802.6l23.6,27.9c5.1,6.1,14.5,6.2,19.7,0.2l0,0c2.6-2.9,2.4-7.4-0.5-10.1l-35.4-26.2
					L1194.9,802.6z"/>
				<path fill="#D4D5FD" d="M1272.2,880.6l-37-2.2l-8.7-85.4c-0.9-18.3,14.3-33.4,32.7-32.3l0,0c18,1.1,31.7,16.6,30.6,34.6
					c-1.8,29.1-1.7,57.4,4.1,81C1293,882.6,1283.9,881.3,1272.2,880.6z"/>
				<path fill="none" stroke="#8648A8" stroke-miterlimit="10" d="M1235.2,878.4l-5.9-54.9c-1-11-1.2-22.1-0.6-33.1l0,0"/>
				<g>
					<path fill="#D481A6" d="M1268.6,763.2l-1.1-23.3l-24.3-1.4l1.3,26c0.3,6.2,5.2,11.1,11.4,11.5
						C1263,776.3,1268.9,770.4,1268.6,763.2z"/>
					<g>
						<path fill="#171754" d="M1240.1,720.3c-3.6-2.3-7.9-2.7-11.8-1.1c-2.3,0.9-4.4,4.1-4.7,7c-0.7,6.8,1.2,10.4,4.4,12
							c2.6,1.3,3.9-0.7,5.9,2.5c1,1.5,2,3.1,2.8,4.8c1,2.3,3.2,3.4,5.3,2.6l0,0c0.6-4.5,1.3-8.9,1.9-13.4c0.6-3.9,1-8.3-0.8-11.4
							C1242.4,722.1,1241.3,721.1,1240.1,720.3z"/>
						<path fill="#F2A5C7" d="M1250.5,728c0.5-0.1,1-0.2,1.4-0.2c7.4-1.3,14.2,4.7,14.4,12.9c0.2,6.1-0.8,12.3-4.1,17.8
							c-6.2,10.6-16.6,13.9-21.7,14.7c-10.3,1.5-18.3-29.2-11.4-47L1250.5,728z"/>
						<path fill="#FAFBFF" d="M1239.6,763.2l-1.1-0.1c-4.1-0.2-7.2-3.7-6.9-7.8l0,0l15.9,0.9l0,0
							C1247.2,760.4,1243.7,763.5,1239.6,763.2z"/>
						<path fill="#171754" d="M1251.9,705.8c-3-1-6.1-1.2-9.2-0.7c-3.3,0.5-6.3,2.3-8.9,4.7c-3.5,3.4-8,5.3-13.6,5.7
							c-2.8,1.5-3.3,5.7-1,7.9l0,0c4.8,4.6,11.1,6.7,17.4,5.9l2.7-0.4c9.3-1.2,18.6,0.4,27,4.7l2,1l0.1-1.8
							C1269.2,720.3,1262.3,709.1,1251.9,705.8z"/>
						<path fill="#171754" d="M1270.7,712.3c-4.4-3.1-9.8-3.6-14.6-1.4c-2.9,1.3-5.5,5.6-5.9,9.5c-0.9,9.3,1.4,14,5.4,16.1
							c3.2,1.7,4.8-1,7.3,3.3c1.2,2.1,2.5,4.2,3.4,6.5c1.3,3.1,4,4.6,6.6,3.5l0,0c0.8-6,1.7-12.1,2.5-18.1
							c0.7-5.3,1.3-11.2-0.9-15.4C1273.5,714.6,1272.1,713.3,1270.7,712.3z"/>
						<path fill="none" stroke="#4424AF" stroke-width="1.3238" stroke-miterlimit="10" d="M1259,709.9c-1,0.2-2,0.5-2.9,1
							c-1.3,0.6-2.6,1.8-3.6,3.4"/>
						
							<line fill="none" stroke="#FAFBFF" stroke-width="1.5552" stroke-miterlimit="10" x1="1254.9" y1="741.9" x2="1264.2" y2="739.6"/>
						<path fill="#F2A5C7" d="M1259.5,742.7c-0.7,3.2,2.1,7,5.3,6.5c2.5-0.4,4.2-3.1,4.2-5.7c0-0.7-0.1-1.3-0.3-1.9
							c-0.9-2.5-4.3-3.8-6.6-2.5C1260.7,739.8,1259.9,741.2,1259.5,742.7z"/>
					</g>
					<g>
						<path fill="#BFD0FF" stroke="#FAFBFF" stroke-width="1.5552" stroke-miterlimit="10" d="M1224.5,742.5
							c-0.2,3.7,2.6,6.9,6.3,7.1c3.7,0.2,6.9-2.6,7.1-6.3c0.2-3.7-2.6-6.9-6.3-7.1C1228,736,1224.8,738.8,1224.5,742.5z"/>
						<g opacity="0.3">
							<path fill="#FAFBFF" d="M1229.3,748.3c-0.3,0-0.6-0.1-0.9-0.3c-0.8-0.6-0.8-1.6-0.2-2.9c1-2.1,2.3-4.1,3.8-6
								c0.1-0.2,0.5-0.6,0.4-0.8c0-0.1-0.3-0.2-0.5-0.1c-0.4,0.1-0.7,0.4-1,0.7l-2.3,2.4c-0.3,0.3-0.7,0.7-1.3,0.8
								c-0.5,0.1-1-0.1-1.4-0.5c-0.5-0.5-0.7-1.2-0.6-1.8c0.2-1,0.7-2,1.3-2.6l0.9,0.9c-0.4,0.4-0.8,1.2-0.9,1.9
								c0,0.2,0.1,0.6,0.2,0.7c0.1,0.1,0.2,0.1,0.3,0.1c0.2,0,0.5-0.3,0.6-0.5l2.3-2.4c0.4-0.4,0.8-0.9,1.5-1.1
								c0.8-0.2,1.8,0.1,2.1,0.9c0.3,0.9-0.3,1.6-0.6,2c-1.4,1.8-2.7,3.7-3.7,5.7c-0.3,0.5-0.4,1.2-0.2,1.4c0.1,0.1,0.4,0.1,0.6,0
								c0.3-0.1,0.5-0.4,0.8-0.7l2.7-2.8c0.4-0.4,1.5-1.6,2.8-1.1c1.2,0.4,1.5,1.9,1.1,3.2c-0.1,0.3-0.2,0.6-0.4,0.9
								c-0.2,0.5-0.5,1-0.5,1.5l-1.2,0c0-0.8,0.3-1.4,0.6-2c0.1-0.3,0.2-0.5,0.3-0.8c0.2-0.6,0.1-1.5-0.3-1.6
								c-0.4-0.1-0.9,0.1-1.5,0.8l-2.7,2.8c-0.3,0.3-0.7,0.7-1.2,0.9C1230,748.3,1229.7,748.4,1229.3,748.3z"/>
						</g>
						<path fill="#BFD0FF" stroke="#FAFBFF" stroke-width="1.5552" stroke-miterlimit="10" d="M1241.8,743.6
							c-0.2,3.7,2.6,6.9,6.3,7.1c3.7,0.2,6.9-2.6,7.1-6.3c0.2-3.7-2.6-6.9-6.3-7.1C1245.2,737,1242,739.8,1241.8,743.6z"/>
						<g opacity="0.3">
							<path fill="#FAFBFF" d="M1250.5,750.7l-1.2-0.1c0.2-1.9,1.2-3.7,2.1-5.2c0.5-0.8,1-1.6,1.3-2.4c0.1-0.2,0-0.3-0.1-0.4
								c0,0-0.2-0.2-0.4,0c-1,0.6-1.9,1.5-2.7,2.5c-0.3,0.3-0.6,0.6-0.8,0.9c-0.5,0.5-0.9,0.9-1.5,1.2c-0.7,0.3-1.7,0.2-2.2-0.5
								c-0.5-0.8-0.3-1.7,0-2.3c0.5-1.3,1.2-2.5,2-3.6c0.5-0.7,0.7-1.2,0.5-1.5c-0.1-0.2-0.4-0.3-0.7-0.2c-1,0.2-2.5,0.7-2.9,1.1
								l-1-0.8c0.7-0.9,2.9-1.4,3.6-1.6c0.7-0.1,1.5,0.2,1.9,0.7c0.8,1.1,0,2.3-0.5,2.9c-0.7,1.1-1.3,2.2-1.9,3.4
								c-0.2,0.5-0.3,0.9-0.1,1.1c0.1,0.2,0.5,0.2,0.7,0.1c0.3-0.2,0.7-0.5,1-0.8c0.4-0.4,0.6-0.7,0.9-1c0.9-1,1.9-2.1,3-2.7
								c0.6-0.3,1.3-0.3,1.9,0.2c0.5,0.4,0.7,1.1,0.4,1.8c-0.3,0.8-0.8,1.7-1.3,2.6C1251.6,747.4,1250.7,749,1250.5,750.7z"/>
						</g>
						
							<line fill="none" stroke="#FAFBFF" stroke-width="1.5552" stroke-miterlimit="10" x1="1241.8" y1="743.1" x2="1238" y2="742.9"/>
					</g>
				</g>
				<g>
					<polygon fill="#B5A1DF" points="1247.4,780.4 1238.5,818.7 1247.8,827.2 1257,821.2 1254.5,781.1 					"/>
					<g>
						<path fill="#573D8E" d="M1246.1,795.1c-0.1,0.9,0.5,1.7,1.4,1.8c0.9,0.1,1.7-0.5,1.8-1.4c0.1-0.9-0.5-1.7-1.4-1.8
							C1247,793.6,1246.2,794.2,1246.1,795.1z"/>
						<path fill="#573D8E" d="M1250,801.9c-0.1,0.9,0.5,1.7,1.4,1.8c0.9,0.1,1.7-0.5,1.8-1.4c0.1-0.9-0.5-1.7-1.4-1.8
							C1250.9,800.4,1250.1,801,1250,801.9z"/>
						<path fill="#573D8E" d="M1249.7,788.4c-0.1,0.9,0.5,1.7,1.4,1.8c0.9,0.1,1.7-0.5,1.8-1.4c0.1-0.9-0.5-1.7-1.4-1.8
							S1249.8,787.5,1249.7,788.4z"/>
						<path fill="#573D8E" d="M1243.3,805.2c-0.1,0.9,0.5,1.7,1.4,1.8c0.9,0.1,1.7-0.5,1.8-1.4c0.1-0.9-0.5-1.7-1.4-1.8
							C1244.2,803.7,1243.4,804.4,1243.3,805.2z"/>
						<path fill="#573D8E" d="M1249,811.6c-0.1,0.9,0.5,1.7,1.4,1.8c0.9,0.1,1.7-0.5,1.8-1.4c0.1-0.9-0.5-1.7-1.4-1.8
							C1249.9,810.1,1249.1,810.7,1249,811.6z"/>
						<path fill="#573D8E" d="M1241.9,815.2c-0.1,0.9,0.5,1.7,1.4,1.8s1.7-0.5,1.8-1.4c0.1-0.9-0.5-1.7-1.4-1.8
							C1242.8,813.7,1242,814.4,1241.9,815.2z"/>
						<path fill="#573D8E" d="M1246,820.9c-0.1,0.9,0.5,1.7,1.4,1.8c0.9,0.1,1.7-0.5,1.8-1.4c0.1-0.9-0.5-1.7-1.4-1.8
							C1246.9,819.4,1246.1,820,1246,820.9z"/>
					</g>
					<path fill="#573D8E" d="M1246.8,782.4c0.7,1.2,2,2.1,3.5,2.3c1.7,0.2,3.2-0.5,4.2-1.7l-0.1-2l-7.2-0.7L1246.8,782.4z"/>
					<path fill="#B5A1DF" d="M1247.1,779.6c-0.3,2.1,1.3,4.1,3.4,4.3c2.1,0.3,4.1-1.3,4.3-3.4c0.3-2.1-1.3-4.1-3.4-4.3
						C1249.3,775.9,1247.3,777.4,1247.1,779.6z"/>
				</g>
				<g>
					<g>
						<g>
							<path fill="#171754" d="M1297.5,908.1h-32.3v-6.6c0-3.3,2.7-6,6-6h20.2c3.3,0,6,2.7,6,6V908.1z M1268.1,905.2h26.5v-3.7
								c0-1.7-1.4-3.2-3.2-3.2h-20.2c-1.7,0-3.2,1.4-3.2,3.2V905.2z"/>
						</g>
						<g>
							<g id="bag_6_">
								<path fill="#32325D" d="M1317.9,906.3c-0.3-0.2-0.5-0.4-0.8-0.6c-0.1-0.1-0.2-0.1-0.3-0.2c-0.2-0.1-0.4-0.2-0.6-0.3
									c-0.2-0.1-0.4-0.2-0.6-0.2c-0.2-0.1-0.5-0.1-0.7-0.2c-0.4-0.1-0.9-0.1-1.3-0.1h-32.3h-32.3c-0.4,0-0.9,0-1.3,0.1
									c-0.3,0-0.5,0.1-0.7,0.2c-0.2,0.1-0.4,0.1-0.6,0.2c-0.2,0.1-0.4,0.2-0.6,0.3c-0.1,0.1-0.2,0.1-0.3,0.2
									c-0.3,0.2-0.6,0.4-0.8,0.6c-1.5,1.3-2.5,3.2-2.5,5.3v39.3c0,3.8,3.1,6.9,6.9,6.9h32.3h32.3c3.8,0,6.9-3.1,6.9-6.9v-39.3
									C1320.4,909.5,1319.4,907.6,1317.9,906.3z"/>
								<path fill="#D4D5FD" d="M1285,929.2v2.9c0,2-1.6,3.7-3.7,3.7c-2,0-3.7-1.6-3.7-3.7v-2.9H1285z"/>
							</g>
							<path fill="#54548E" d="M1317.9,906.3c-0.3-0.3-0.7-0.5-1.1-0.7c-0.2-0.1-0.4-0.2-0.6-0.3c-0.2-0.1-0.4-0.2-0.6-0.2
								c-0.7-0.2-1.3-0.3-2-0.3h-32.3h-32.3c-0.7,0-1.4,0.1-2.1,0.3c-0.2,0.1-0.4,0.1-0.6,0.2c-0.2,0.1-0.4,0.2-0.6,0.3
								c-0.4,0.2-0.8,0.5-1.1,0.7c-1.5,1.3-2.5,3.2-2.5,5.3v11c0,3.8,3.1,6.9,6.9,6.9h32.3h32.3c3.8,0,6.9-3.1,6.9-6.9v-11
								C1320.4,909.5,1319.4,907.6,1317.9,906.3z"/>
						</g>
					</g>
					<path fill="#F2A5C7" d="M1275.6,884.8l-1.2,4.5c-0.7,2.5-1.1,5.1-1.3,7.8l0,0.8c-0.2,3.5,2.5,6.5,6,6.7l6.2,0.3
						c3.5,0.2,6.5-2.5,6.7-6l0.1-1c0.1-2.4-0.3-4.9-1.3-7.1l-2.3-5.2L1275.6,884.8z"/>
					<path fill="#D4D5FD" d="M1287.8,780.1l11.1,41.5c1.4,5.1,1.5,10.4,0.5,15.6l-10.1,50.3l-15.3-0.9l3.9-48.7l-8.2-48.3
						c-1.4-4.1-0.9-8.6,1.5-12.2l0,0C1275.5,770.7,1285.7,772.4,1287.8,780.1z"/>
					<polyline fill="none" stroke="#8648A8" stroke-miterlimit="10" points="1274.3,886.4 1277.9,837.8 1270.5,800 					"/>
				</g>
			</g>
			<g>
				<polygon fill="#F2A5C7" points="1199.8,798.5 1196.2,802.1 1191.7,798.8 1198,793.7 				"/>
				<path fill="#171754" d="M1196.3,766.6h-15.3c-0.9,0-1.6,0.7-1.6,1.6v33.4c0,0.9,0.7,1.6,1.6,1.6h15.3c0.9,0,1.6-0.7,1.6-1.6
					v-33.4C1197.9,767.3,1197.1,766.6,1196.3,766.6z"/>
				<path fill="#4424AF" d="M1181.6,800.5v-31.1c0-0.3,0.2-0.5,0.5-0.5h13c0.3,0,0.5,0.2,0.5,0.5v31.1c0,0.3-0.2,0.5-0.5,0.5h-13
					C1181.8,800.9,1181.6,800.7,1181.6,800.5z"/>
				<rect x="1184.9" y="773.5" fill="#171754" width="7.5" height="0.8"/>
				<rect x="1183.6" y="776.9" fill="#171754" width="10.1" height="0.8"/>
				<path fill="#F2A5C7" d="M1202.2,793l-0.8-6.2c-0.2-1.2-0.9-2.3-2.1-2.8l-7.9-3.6c-0.8-0.4-1.8,0.1-2,1l0,0
					c-0.1,0.6,0,1.1,0.5,1.5l5.8,4.7c-1.6,5.4,0.1,8.6,4.1,10.9l0.7-0.6C1201.8,796.6,1202.5,794.8,1202.2,793z"/>
				<g>
					<path fill="#F2A5C7" d="M1181.1,787h-4v-0.5c0-2,1.6-3.6,3.6-3.6h0.4c1.1,0,2,0.9,2,2l0,0C1183.1,786.1,1182.2,787,1181.1,787z
						"/>
					<path fill="#F2A5C7" d="M1181.1,791.1h-4V787h4c1.1,0,2,0.9,2,2l0,0C1183.1,790.2,1182.2,791.1,1181.1,791.1z"/>
					<path fill="#F2A5C7" d="M1181.1,795.2h-4v-4.1h4c1.1,0,2,0.9,2,2l0,0C1183.1,794.3,1182.2,795.2,1181.1,795.2z"/>
					<path fill="#F2A5C7" d="M1180.1,798.5h0.6c-2,0-3.6-1.6-3.6-3.6l0,0h3.1c1,0,1.8,0.8,1.8,1.8l0,0
						C1181.9,797.6,1181.1,798.5,1180.1,798.5z"/>
				</g>
			</g>
		</g>
	</g>
	<g>
		<g>
			<g>
				<rect x="704.8" y="322.4" fill="#171754" width="51.8" height="6.2"/>
				<path fill="#171754" d="M760.9,325.3l23.1-40.1c0.8-1.4,0.4-3.2-1-4.1l-1.9-1.2l-25.9,44.9l2.1,1.4
					C758.6,326.9,760.2,326.5,760.9,325.3z"/>
				<path fill="#FFFFFF" d="M753.4,325.8c0,1.8,1.5,3.3,3.3,3.3c1.8,0,3.3-1.5,3.3-3.3c0-1.8-1.5-3.3-3.3-3.3
					C754.8,322.6,753.4,324,753.4,325.8z"/>
				<path fill="#171754" d="M754.9,325.8c0,1,0.8,1.8,1.8,1.8c1,0,1.8-0.8,1.8-1.8c0-1-0.8-1.8-1.8-1.8
					C755.7,324.1,754.9,324.9,754.9,325.8z"/>
			</g>
			<polygon fill="#171754" points="727.7,316.8 739.4,313.9 750.9,319.5 750.9,322.7 721,322.7 			"/>
			<g>
				<path fill="#171754" d="M690.6,253.4l6.6,37.9l33.7,23.8l-10.2,5.1c-14-5.4-30.2-9-38.6-21.3l-13-42.1L690.6,253.4z"/>
				<polyline fill="#171754" points="659.5,263.8 682.4,301.5 689.9,307.4 				"/>
			</g>
			<path fill="#32325D" d="M688.2,326.2l57.6,2.2c6.5,0.2,11.6,5.6,11.6,12l0,0c0,5.8-4.1,10.7-9.8,11.8c-19.7,3.8-63.3,12-76.7,12
				l0,0c-15.3,0-27.8-12.4-27.8-27.8l0,0L688.2,326.2z"/>
			<path fill="#786CF2" d="M689.6,237.7l1.7,2c7.8,9.2,10.6,21.7,7.5,33.3c-6,23-10.4,37.7-10.6,53.2l-45,10.3v-31.8
				c0-22.8,0.3-38.7,11.6-56.3c8.9-13.9,21.9-15.7,23.7-15.1L689.6,237.7z"/>
			<path fill="#171754" d="M735.7,310.5l-8.8,4.5l5,2.6l5.5-4.6c0.7-0.6,0.7-1.7,0-2.3l0,0C736.9,310.3,736.2,310.2,735.7,310.5z"/>
			<polygon fill="#CA725C" points="718,316.8 729.6,313.9 741.1,319.5 741.1,322.7 711.2,322.7 			"/>
			<g>
				<path fill="#9087F4" d="M681.9,253.6l5.4,34.3l38.4,26.8l-12.2,8c-15.4-6.2-34-13-43.2-26.8l-9-38.1c-1.5-6.3,3-12.4,9.5-12.9
					l0,0C676.2,244.4,681,248.2,681.9,253.6z"/>
			</g>
			<path fill="#FFFFFF" d="M696.2,270.9c0,1-0.8,1.7-1.7,1.7c-1,0-1.7-0.8-1.7-1.7c0-1,0.8-1.7,1.7-1.7
				C695.4,269.1,696.2,269.9,696.2,270.9z"/>
			<circle fill="#FFFFFF" cx="696.2" cy="261" r="1.7"/>
			<g>
				<g>
					<path fill="#FFC587" d="M790.1,382.8l6.6,5.3c1.1,0.8,2.3,1.4,3.7,1.5c5.9,0.3,12.3-1.2,18.2-3.3c4.1-1.4,8.7,0.7,10.2,4.7l0,0
						l-33.4,23.3c-6.4-4.6-10.4-10.2-13.3-17.8L790.1,382.8z"/>
					<path fill="#FAFBFF" d="M828.7,391c-0.1-0.2-0.2-0.5-0.3-0.7c-0.1-0.1-0.1-0.3-0.2-0.4c0-0.1-0.1-0.1-0.1-0.2
						c-0.1-0.2-0.2-0.3-0.3-0.5c0,0,0,0,0-0.1c-0.1-0.2-0.3-0.4-0.4-0.5l0,0l-34.3,23.8c0.7,0.7,1.5,1.3,2.3,1.9L828.7,391
						C828.7,391,828.7,391,828.7,391z"/>
					<path fill="#FAFBFF" d="M797,402.1c0.8,2.5-1.5,5-4.3,3.9c-0.6-0.2-1.1-0.7-1.4-1.2c-1.4-2.5,0.6-5.2,3.2-4.8
						C795.7,400.2,796.7,401,797,402.1z"/>
					<path fill="#FAFBFF" d="M810.4,388.6l2.7,4l1.3-0.9l-2.4-3.5C811.5,388.3,810.9,388.5,810.4,388.6z"/>
					<path fill="#FAFBFF" d="M800.1,394.3l1.5,0.3l0.8-5.3c-0.5,0-1,0-1.5,0L800.1,394.3z"/>
					<path fill="#FAFBFF" d="M805.7,389.3l0.5,4.9l1.6-0.1l-0.5-5C806.8,389.2,806.2,389.3,805.7,389.3z"/>
				</g>
				<g>
					<path fill="#32325D" d="M781.7,398l13.6-13.6l-35.3-47.9c-7.4-10.1-22.1-11.2-30.9-2.3l-4.1,4.1
						C746.7,361.9,766.3,386.2,781.7,398z"/>
				</g>
			</g>
			<g>
				<path fill="#9087F4" d="M675.9,234c3,0,5.7,0.5,8.1,1.2c3.2,1.7,6.5,3.7,6.5,3.7c3.3,3.6,5.5,7.7,3.5,8.8
					c-2,1.1-6.7-0.7-11.1-3.5c-2.8-1.8-6.4-4.6-8.5-7.1C673.3,235.9,674.3,234,675.9,234z"/>
				<path fill="#CA725C" d="M682.4,223.9l-4.9,9.7c-0.5,1.2-0.3,2.5,0.4,3.5c2,2.8,6.5,7.9,14.4,9.1c-0.7-6.6,4.7-10.3,4.7-10.3
					L682.4,223.9z"/>
				<path fill="#CA725C" d="M716.2,201.3l2.2,15.6c0.3,1.8-1,3.5-2.9,3.7l-2.3,0.2l0.4,8.7L686,239.7l-4.5-10.7l2.1-32.2l23-2.9
					L716.2,201.3z"/>
				<path opacity="0.4" fill="#CA725C" d="M684.4,228.7c-2,5,0,10.6,4.6,13.3c1,0.6,2.1,1.1,3.3,1.6c0.7-4.9,4.7-7.6,4.7-7.6
					l-11.6-9.6L684.4,228.7z"/>
				<g>
					
						<ellipse transform="matrix(0.9956 -9.409541e-02 9.409541e-02 0.9956 -14.4512 64.5133)" fill="#171754" cx="676.9" cy="185.5" rx="12.1" ry="12.1"/>
					<path fill="#171754" d="M713.9,183.4l-18.3-2c-6.3-0.7-12.5,2.4-15.8,7.9l-6.6,11c-2.1,3.5-2.5,7.7-1.2,11.5l8.5,12.3
						C687.4,226.1,703,198.7,713.9,183.4z"/>
					<path fill="none" stroke="#4424AF" stroke-width="1.3238" stroke-miterlimit="10" d="M695.6,181.4c-6.3-0.7-12.5,2.4-15.8,7.9"
						/>
					<path fill="#171754" d="M710.4,201.6L710.4,201.6c6.3,1.1,12.5-2.6,14.5-8.7l0.5-1.6c1.6-4.6-1.7-9.4-6.5-9.7l-10.1-0.6
						c-4.9-0.3-9.7,1.4-13.4,4.6L682,197.2L710.4,201.6z"/>
					<path fill="none" stroke="#4424AF" stroke-width="1.3238" stroke-miterlimit="10" d="M700.9,182.5c-4,1.2-6.3,3.8-8.5,5.8"/>
					<path fill="none" stroke="#1D0F4A" stroke-width="1.0903" stroke-miterlimit="10" d="M713.6,209.5c-2-2.4-4-2.3-5.8-1"/>
					<path fill="#171754" d="M687.6,217.4l-2.7,10.6c-0.8,3.1,0,6.3,2.2,8.7c4.9,5.3,11.8,9.8,19.2,11c12.9,2.2,7-25.3,7-25.3
						c-1.1-0.9-13.1-1.3-18,2.2c1.5-8.7,2.8-19.9,7-25.3l-3.5-0.6L687.6,217.4z"/>
					<g>
						
							<line fill="none" stroke="#4424AF" stroke-width="1.3238" stroke-linecap="round" stroke-miterlimit="10" x1="702.1" y1="233" x2="702" y2="235.2"/>
						
							<line fill="none" stroke="#4424AF" stroke-width="1.3238" stroke-linecap="round" stroke-miterlimit="10" x1="712.2" y1="232.3" x2="712.1" y2="234.4"/>
						
							<line fill="none" stroke="#4424AF" stroke-width="1.3238" stroke-linecap="round" stroke-miterlimit="10" x1="708.4" y1="234.1" x2="708.3" y2="236.2"/>
						
							<line fill="none" stroke="#4424AF" stroke-width="1.3238" stroke-linecap="round" stroke-miterlimit="10" x1="710.7" y1="238.7" x2="710.7" y2="240.8"/>
						
							<line fill="none" stroke="#4424AF" stroke-width="1.3238" stroke-linecap="round" stroke-miterlimit="10" x1="704.1" y1="238.7" x2="704" y2="240.8"/>
						
							<line fill="none" stroke="#4424AF" stroke-width="1.3238" stroke-linecap="round" stroke-miterlimit="10" x1="706.9" y1="241.5" x2="706.8" y2="243.6"/>
					</g>
					<path fill="#CA725C" d="M695.6,211.5c-0.4,2.4-2.7,4-5.1,3.6c-2.4-0.4-4-2.7-3.6-5.1c0.4-2.4,2.7-4,5.1-3.6
						S696,209.1,695.6,211.5z"/>
					<path fill="#B06350" d="M692.2,212.1c-0.1,0.9-1,1.4-1.8,1.3c-0.9-0.1-1.4-1-1.3-1.8c0.1-0.9,1-1.4,1.8-1.3
						C691.8,210.4,692.4,211.2,692.2,212.1z"/>
					<path fill="#FFFFFF" d="M702.6,225.7c0.4,2.2,2.1,4,4.4,4.4c2.5,0.4,4.9-1,5.9-3.3L702.6,225.7z"/>
					<path opacity="0.4" fill="#CA725C" d="M710.4,217.6c-0.2,1.5-1.7,2.5-3.1,2.2c-1.5-0.2-2.5-1.7-2.2-3.1
						c0.2-1.5,1.7-2.5,3.1-2.2C709.6,214.7,710.6,216.1,710.4,217.6z"/>
					<line fill="none" stroke="#4424AF" stroke-width="1.3238" stroke-miterlimit="10" x1="701.9" y1="200.1" x2="695.5" y2="199"/>
				</g>
			</g>
		</g>
	</g>
	<g>
		<g>
			<path fill="#E6E7EB" d="M774.2,792.8l17.2,19.3l18.4-70.4l-21.9-5.2l-15.8,45.7C770.8,785.9,771.6,789.9,774.2,792.8z"/>
			<g>
				<path fill="#F2A5C7" d="M792.1,913.9l-37,45.5c-0.9,0.4-1.6,0.8-2.2,1.2l-8.5-6.3c2.2-2.4,4-5.2,5.2-8.2
					c9.1-23,17.4-37.7,28.5-50.1l12.4,7.5C794,905.7,794.8,910.6,792.1,913.9z"/>
			</g>
			<path fill="#F2A5C7" d="M776.9,909.3c-3.2-17-1.5-47.5,2-64.8l34.5-7.9l-20,74.6c-0.4,1.3-1.8,2.1-3.1,1.8L776.9,909.3z"/>
			<path fill="#F2A5C7" d="M820,908.4c-7.2-14.5-15-38.9-15.9-60.4l25-24.2l10.9,84.6L820,908.4z"/>
			<path fill="#F2A5C7" d="M840,908.5l-7.1,71.6h-12.5c-4.8-20.9-6.3-48.4-0.5-77.2L840,908.5z"/>
			<g>
				<defs>
					<path id="SVGID_3_" d="M770.2,896.2c22.8-1.3,39.3,16.4,72.7,8.6c0.9-36.9-9-54-12.7-88.6h-43.5
						C773.8,839.4,768.8,868,770.2,896.2z"/>
				</defs>
				<use xlink:href="#SVGID_3_"  overflow="visible" fill="#523D8E"/>
				<clipPath id="SVGID_4_">
					<use xlink:href="#SVGID_3_"  overflow="visible"/>
				</clipPath>
				<g opacity="0.4" clip-path="url(#SVGID_4_)">
					<path fill="#B5A1DF" d="M775.2,923.3c1.5,0.1,2.8-1.2,2.9-2.7c0.1-1.5-1.2-2.8-2.7-2.9c-1.5-0.1-2.8,1.2-2.9,2.7
						C772.5,922,773.7,923.2,775.2,923.3z"/>
					
						<ellipse transform="matrix(0.2897 -0.9571 0.9571 0.2897 -316.4596 1386.3394)" fill="#B5A1DF" cx="775.8" cy="906.4" rx="2.8" ry="2.8"/>
					
						<ellipse transform="matrix(0.2062 -0.9785 0.9785 0.2062 -256.9006 1467.7855)" fill="#B5A1DF" cx="776.3" cy="892.2" rx="2.8" ry="2.8"/>
					<path fill="#B5A1DF" d="M776.6,880.9c1.5,0.1,2.8-1.2,2.9-2.7c0.1-1.5-1.2-2.8-2.7-2.9s-2.8,1.2-2.9,2.7
						C773.9,879.5,775.1,880.8,776.6,880.9z"/>
					<path fill="#B5A1DF" d="M777.1,866.8c1.5,0.1,2.8-1.2,2.9-2.7c0.1-1.5-1.2-2.8-2.7-2.9c-1.5-0.1-2.8,1.2-2.9,2.7
						C774.4,865.4,775.6,866.7,777.1,866.8z"/>
					<path fill="#B5A1DF" d="M777.6,852.6c1.5,0.1,2.8-1.2,2.9-2.7c0.1-1.5-1.2-2.8-2.7-2.9c-1.5-0.1-2.8,1.2-2.9,2.7
						C774.9,851.3,776.1,852.6,777.6,852.6z"/>
					<path fill="#B5A1DF" d="M787,916.6c1.5,0.1,2.8-1.2,2.9-2.7c0.1-1.5-1.2-2.8-2.7-2.9c-1.5-0.1-2.8,1.2-2.9,2.7
						C784.3,915.3,785.5,916.6,787,916.6z"/>
					<path fill="#B5A1DF" d="M787.5,902.5c1.5,0.1,2.8-1.2,2.9-2.7c0.1-1.5-1.2-2.8-2.7-2.9c-1.5-0.1-2.8,1.2-2.9,2.7
						C784.7,901.1,785.9,902.4,787.5,902.5z"/>
					<path fill="#B5A1DF" d="M788,888.4c1.5,0.1,2.8-1.2,2.9-2.7s-1.2-2.8-2.7-2.9c-1.5-0.1-2.8,1.2-2.9,2.7
						C785.2,887,786.4,888.3,788,888.4z"/>
					<path fill="#B5A1DF" d="M788.4,874.2c1.5,0.1,2.8-1.2,2.9-2.7c0.1-1.5-1.2-2.8-2.7-2.9c-1.5-0.1-2.8,1.2-2.9,2.7
						C785.7,872.9,786.9,874.2,788.4,874.2z"/>
					<path fill="#B5A1DF" d="M788.9,860.1c1.5,0.1,2.8-1.2,2.9-2.7c0.1-1.5-1.2-2.8-2.7-2.9c-1.5-0.1-2.8,1.2-2.9,2.7
						C786.2,858.7,787.4,860,788.9,860.1z"/>
					<path fill="#B5A1DF" d="M798.3,924.1c1.5,0.1,2.8-1.2,2.9-2.7c0.1-1.5-1.2-2.8-2.7-2.9c-1.5-0.1-2.8,1.2-2.9,2.7
						C795.6,922.7,796.8,924,798.3,924.1z"/>
					
						<ellipse transform="matrix(0.2675 -0.9636 0.9636 0.2675 -288.9215 1434.2565)" fill="#B5A1DF" cx="798.9" cy="907.2" rx="2.8" ry="2.8"/>
					<path fill="#B5A1DF" d="M799.3,895.8c1.5,0.1,2.8-1.2,2.9-2.7c0.1-1.5-1.2-2.8-2.7-2.9c-1.5-0.1-2.8,1.2-2.9,2.7
						C796.5,894.5,797.8,895.8,799.3,895.8z"/>
					<path fill="#B5A1DF" d="M799.8,881.7c1.5,0.1,2.8-1.2,2.9-2.7c0.1-1.5-1.2-2.8-2.7-2.9c-1.5-0.1-2.8,1.2-2.9,2.7
						C797,880.3,798.2,881.6,799.8,881.7z"/>
					<path fill="#B5A1DF" d="M800.3,867.5c1.5,0.1,2.8-1.2,2.9-2.7c0.1-1.5-1.2-2.8-2.7-2.9c-1.5-0.1-2.8,1.2-2.9,2.7
						C797.5,866.2,798.7,867.5,800.3,867.5z"/>
					<path fill="#B5A1DF" d="M800.7,853.4c1.5,0.1,2.8-1.2,2.9-2.7c0.1-1.5-1.2-2.8-2.7-2.9c-1.5-0.1-2.8,1.2-2.9,2.7
						C798,852.1,799.2,853.4,800.7,853.4z"/>
					<path fill="#B5A1DF" d="M810.1,917.4c1.5,0.1,2.8-1.2,2.9-2.7c0.1-1.5-1.2-2.8-2.7-2.9c-1.5-0.1-2.8,1.2-2.9,2.7
						C807.4,916.1,808.6,917.4,810.1,917.4z"/>
					
						<ellipse transform="matrix(0.2897 -0.9571 0.9571 0.2897 -286.0111 1415.5963)" fill="#B5A1DF" cx="810.7" cy="900.5" rx="2.8" ry="2.8"/>
					
						<ellipse transform="matrix(0.2062 -0.9785 0.9785 0.2062 -223.412 1497.2982)" fill="#B5A1DF" cx="811.2" cy="886.4" rx="2.8" ry="2.8"/>
					<path fill="#B5A1DF" d="M811.6,875c1.5,0.1,2.8-1.2,2.9-2.7c0.1-1.5-1.2-2.8-2.7-2.9c-1.5-0.1-2.8,1.2-2.9,2.7
						C808.8,873.7,810,875,811.6,875z"/>
					
						<ellipse transform="matrix(0.2897 -0.9571 0.9571 0.2897 -243.849 1388.1819)" fill="#B5A1DF" cx="813.3" cy="858.4" rx="2.8" ry="2.8"/>
					<path fill="#B5A1DF" d="M821.5,924.9c1.5,0.1,2.8-1.2,2.9-2.7c0.1-1.5-1.2-2.8-2.7-2.9c-1.5-0.1-2.8,1.2-2.9,2.7
						C818.7,923.5,819.9,924.8,821.5,924.9z"/>
					<path fill="#B5A1DF" d="M821.9,910.7c1.5,0.1,2.8-1.2,2.9-2.7c0.1-1.5-1.2-2.8-2.7-2.9c-1.5-0.1-2.8,1.2-2.9,2.7
						C819.2,909.4,820.4,910.7,821.9,910.7z"/>
					<path fill="#B5A1DF" d="M822.4,896.6c1.5,0.1,2.8-1.2,2.9-2.7c0.1-1.5-1.2-2.8-2.7-2.9c-1.5-0.1-2.8,1.2-2.9,2.7
						C819.7,895.3,820.9,896.5,822.4,896.6z"/>
					
						<ellipse transform="matrix(0.2315 -0.9728 0.9728 0.2315 -223.2987 1476.6979)" fill="#B5A1DF" cx="823" cy="879.7" rx="2.8" ry="2.8"/>
					
						<ellipse transform="matrix(0.2897 -0.9571 0.9571 0.2897 -243.9954 1403.3071)" fill="#B5A1DF" cx="823.4" cy="866" rx="2.8" ry="2.8"/>
					<path fill="#B5A1DF" d="M825.4,853.9c1.5,0.1,2.8-1.2,2.9-2.7c0.1-1.5-1.2-2.8-2.7-2.9c-1.5-0.1-2.8,1.2-2.9,2.7
						C822.6,852.5,823.8,853.8,825.4,853.9z"/>
					<path fill="#B5A1DF" d="M833.3,918.2c1.5,0.1,2.8-1.2,2.9-2.7c0.1-1.5-1.2-2.8-2.7-2.9c-1.5-0.1-2.8,1.2-2.9,2.7
						C830.5,916.9,831.7,918.1,833.3,918.2z"/>
					<path fill="#B5A1DF" d="M833.7,904.1c1.5,0.1,2.8-1.2,2.9-2.7c0.1-1.5-1.2-2.8-2.7-2.9c-1.5-0.1-2.8,1.2-2.9,2.7
						C831,902.7,832.2,904,833.7,904.1z"/>
					<path fill="#B5A1DF" d="M834.2,889.9c1.5,0.1,2.8-1.2,2.9-2.7c0.1-1.5-1.2-2.8-2.7-2.9c-1.5-0.1-2.8,1.2-2.9,2.7
						C831.5,888.6,832.7,889.9,834.2,889.9z"/>
					<path fill="#B5A1DF" d="M837.9,876.9c1.5,0.1,2.8-1.2,2.9-2.7c0.1-1.5-1.2-2.8-2.7-2.9s-2.8,1.2-2.9,2.7
						C835.2,875.5,836.4,876.8,837.9,876.9z"/>
					<path fill="#B5A1DF" d="M836.5,863.5c1.5,0.1,2.8-1.2,2.9-2.7c0.1-1.5-1.2-2.8-2.7-2.9c-1.5-0.1-2.8,1.2-2.9,2.7
						C833.7,862.1,834.9,863.4,836.5,863.5z"/>
					<path fill="#B5A1DF" d="M778.1,838.5c1.5,0.1,2.8-1.2,2.9-2.7c0.1-1.5-1.2-2.8-2.7-2.9c-1.5-0.1-2.8,1.2-2.9,2.7
						C775.3,837.1,776.5,838.4,778.1,838.5z"/>
					<path fill="#B5A1DF" d="M789.4,845.9c1.5,0.1,2.8-1.2,2.9-2.7c0.1-1.5-1.2-2.8-2.7-2.9c-1.5-0.1-2.8,1.2-2.9,2.7
						C786.7,844.6,787.9,845.9,789.4,845.9z"/>
					<path fill="#B5A1DF" d="M801.2,839.3c1.5,0.1,2.8-1.2,2.9-2.7c0.1-1.5-1.2-2.8-2.7-2.9c-1.5-0.1-2.8,1.2-2.9,2.7
						C798.5,837.9,799.7,839.2,801.2,839.3z"/>
					<path fill="#B5A1DF" d="M812.5,846.7c1.5,0.1,2.8-1.2,2.9-2.7c0.1-1.5-1.2-2.8-2.7-2.9c-1.5-0.1-2.8,1.2-2.9,2.7
						C809.8,845.4,811,846.7,812.5,846.7z"/>
					<path fill="#B5A1DF" d="M827.4,840.7c1.5,0.1,2.8-1.2,2.9-2.7c0.1-1.5-1.2-2.8-2.7-2.9c-1.5-0.1-2.8,1.2-2.9,2.7
						C824.7,839.4,825.9,840.7,827.4,840.7z"/>
					<path fill="#B5A1DF" d="M837.9,849.2c1.5,0.1,2.8-1.2,2.9-2.7c0.1-1.5-1.2-2.8-2.7-2.9c-1.5-0.1-2.8,1.2-2.9,2.7
						C835.2,847.8,836.4,849.1,837.9,849.2z"/>
					<path fill="#B5A1DF" d="M778.1,838.5c1.5,0.1,2.8-1.2,2.9-2.7c0.1-1.5-1.2-2.8-2.7-2.9c-1.5-0.1-2.8,1.2-2.9,2.7
						C775.3,837.1,776.5,838.4,778.1,838.5z"/>
					
						<ellipse transform="matrix(0.2897 -0.9571 0.9571 0.2897 -233.2343 1328.8632)" fill="#B5A1DF" cx="778.7" cy="821.6" rx="2.8" ry="2.8"/>
					<path fill="#B5A1DF" d="M789.9,831.8c1.5,0.1,2.8-1.2,2.9-2.7c0.1-1.5-1.2-2.8-2.7-2.9c-1.5-0.1-2.8,1.2-2.9,2.7
						C787.2,830.5,788.4,831.8,789.9,831.8z"/>
					<path fill="#B5A1DF" d="M801.2,839.3c1.5,0.1,2.8-1.2,2.9-2.7c0.1-1.5-1.2-2.8-2.7-2.9c-1.5-0.1-2.8,1.2-2.9,2.7
						C798.5,837.9,799.7,839.2,801.2,839.3z"/>
					<path fill="#B5A1DF" d="M801.7,825.1c1.5,0.1,2.8-1.2,2.9-2.7c0.1-1.5-1.2-2.8-2.7-2.9c-1.5-0.1-2.8,1.2-2.9,2.7
						C799,823.8,800.2,825.1,801.7,825.1z"/>
					<path fill="#B5A1DF" d="M813,832.6c1.5,0.1,2.8-1.2,2.9-2.7c0.1-1.5-1.2-2.8-2.7-2.9c-1.5-0.1-2.8,1.2-2.9,2.7
						C810.3,831.3,811.5,832.5,813,832.6z"/>
					<path fill="#B5A1DF" d="M824.8,825.9c1.5,0.1,2.8-1.2,2.9-2.7c0.1-1.5-1.2-2.8-2.7-2.9c-1.5-0.1-2.8,1.2-2.9,2.7
						C822.1,824.6,823.3,825.9,824.8,825.9z"/>
					<path fill="#B5A1DF" d="M842.9,832.6c1.5,0.1,2.8-1.2,2.9-2.7c0.1-1.5-1.2-2.8-2.7-2.9c-1.5-0.1-2.8,1.2-2.9,2.7
						C840.1,831.2,841.3,832.5,842.9,832.6z"/>
					
						<ellipse transform="matrix(0.2897 -0.9571 0.9571 0.2897 -233.2343 1328.8632)" fill="#B5A1DF" cx="778.7" cy="821.6" rx="2.8" ry="2.8"/>
					
						<ellipse transform="matrix(0.2062 -0.9785 0.9785 0.2062 -171.6217 1403.296)" fill="#B5A1DF" cx="779.1" cy="807.4" rx="2.8" ry="2.8"/>
					<path fill="#B5A1DF" d="M847.8,867c1.5,0.1,2.8-1.2,2.9-2.7c0.1-1.5-1.2-2.8-2.7-2.9c-1.5-0.1-2.8,1.2-2.9,2.7
						C845.1,865.6,846.3,866.9,847.8,867z"/>
					<path fill="#B5A1DF" d="M801.7,825.1c1.5,0.1,2.8-1.2,2.9-2.7c0.1-1.5-1.2-2.8-2.7-2.9c-1.5-0.1-2.8,1.2-2.9,2.7
						C799,823.8,800.2,825.1,801.7,825.1z"/>
					<path fill="#B5A1DF" d="M802.2,811c1.5,0.1,2.8-1.2,2.9-2.7c0.1-1.5-1.2-2.8-2.7-2.9c-1.5-0.1-2.8,1.2-2.9,2.7
						C799.4,809.7,800.6,811,802.2,811z"/>
					<path fill="#B5A1DF" d="M813.5,818.5c1.5,0.1,2.8-1.2,2.9-2.7c0.1-1.5-1.2-2.8-2.7-2.9c-1.5-0.1-2.8,1.2-2.9,2.7
						C810.8,817.1,812,818.4,813.5,818.5z"/>
					<path fill="#B5A1DF" d="M825.3,811.8c1.5,0.1,2.8-1.2,2.9-2.7c0.1-1.5-1.2-2.8-2.7-2.9c-1.5-0.1-2.8,1.2-2.9,2.7
						C822.6,810.5,823.8,811.7,825.3,811.8z"/>
					<path fill="#B5A1DF" d="M848.7,843.6c1.5,0.1,2.8-1.2,2.9-2.7c0.1-1.5-1.2-2.8-2.7-2.9c-1.5-0.1-2.8,1.2-2.9,2.7
						C846,842.3,847.2,843.6,848.7,843.6z"/>
				</g>
			</g>
			<g>
				<path fill="none" stroke="#FAFBFF" stroke-width="4" stroke-miterlimit="10" d="M825.1,715.5c0,3.2,2.6,5.9,5.9,5.9
					s5.9-2.6,5.9-5.9s-2.6-5.9-5.9-5.9S825.1,712.3,825.1,715.5z"/>
				<path fill="#F49B76" d="M829.2,704.3c-0.9-11.8-11.6-20.3-23.2-18.7c-10.6,1.5-18.3,11.1-17.5,21.7
					c0.9,11.8,11.6,20.3,23.2,18.7C822.3,724.6,830,715,829.2,704.3z"/>
				<g>
					
						<ellipse transform="matrix(0.6126 -0.7904 0.7904 0.6126 -235.2183 922.267)" fill="#F49B76" cx="823.2" cy="701.1" rx="12.8" ry="12.8"/>
					<path fill="#FAFBFF" d="M786.7,808c-1.2-6.9-9-49.3-4.4-59.7c4.6-10.5,41.4-5.9,47.4-3.3c5.5,2.4,7.3,5.4,7,9.3
						c-0.3,3.6-5.6,7.8-4.6,9.3c6.9,10.8-1.6,20.4-2.4,30.3c-0.5,6.9,0.5,14.1,0.5,14.1H786.7z"/>
					<path fill="#F2A5C7" d="M801.8,722.9l16.8-2.1l1.9,22.2c0.4,4.8-4.5,8.2-8.9,6.1l-8.4-4.1C803.8,736.7,803.6,729,801.8,722.9z"
						/>
					<path fill="#F2A5C7" d="M828.7,701.7l-27.1,1.1L814,738l9.7,1c3.3,0.3,6.3-1.6,7.5-4.6C835.4,723.9,834.6,712.6,828.7,701.7z"
						/>
					<path fill="#F49B76" d="M803.2,705c1,8,8.3,13.6,16.3,12.6c8-1,13.6-8.3,12.6-16.3c-1-8-8.3-13.6-16.3-12.6
						C807.8,689.7,802.2,697,803.2,705z"/>
					<path fill="#F49B76" d="M801.6,740.4c12.1-8.5,18.3-20.1,17-31.8c-1.3-11.6-30-3.7-30-3.7l0,0.4
						C787.8,718.3,792.5,731,801.6,740.4L801.6,740.4z"/>
				</g>
				<path fill="#F49B76" d="M818.6,730.1c1.6-2.6,2.2-5.9,1.1-8.7c-2.9-7.6-3.1-5.9-6.5-7.2c-7-2.7-15.1-1.3-26.2,6.5
					c-9.8,6.9-14.5,12.3-15.6,22.4c-0.9,8.9,3.5,19.1,12.3,22.8c4,1.7,17-0.2,20.6,8.3c1.4,3.3,5.8,4.1,8.1,1.3
					c4.1-5.1,6.2-12.6,4-18.8c-2-5.8-10-7.2-8.9-13.6C808.3,738.1,815,736.1,818.6,730.1z"/>
				<path fill="#F2A5C7" d="M818.4,719.6c1.3,2.8,3.9,4.3,5.9,3.4c2-0.9,2.6-3.9,1.3-6.6c-1.3-2.8-3.9-4.3-5.9-3.4
					C817.7,713.8,817.1,716.8,818.4,719.6z"/>
				<path fill="#FAFBFF" d="M820.7,723.1c0,1.3,1,2.3,2.3,2.3c1.3,0,2.3-1,2.3-2.3c0-1.3-1-2.3-2.3-2.3
					C821.7,720.8,820.7,721.8,820.7,723.1z"/>
			</g>
			<g>
				<path fill="#292992" d="M754.9,960.5c-0.2,7,2.3,16.6,6.6,25.5c1.3,2.6,0.1,5.8-2.6,6.9l0,0c-2.2,0.9-4.8,0.2-6.1-1.8
					l-19.8-28.5c-1.4-2-0.9-4.7,1-6.2c3.2-2.3,7-4.2,12.1-5.5L754.9,960.5z"/>
			</g>
			<g>
				<path fill="#292992" d="M833.5,979.1c5.6,4.1,12.6,7.9,22.2,9.7c1.9,0.4,3.2,2.2,2.8,4.1l0,0c-0.3,1.6-1.8,2.8-3.4,2.8h-33.9
					c-2.3,0-4.2-1.8-4.2-4.1c-0.1-3.7,0.5-7.7,2.3-12.4H833.5z"/>
			</g>
			<g>
				<path fill="#F2A5C7" d="M879.7,759.5l1.4-5.3c0.6-2.4,2.7-4.1,5.1-4.2l4.4-0.3c1.5-0.1,2.8,0.7,3.5,2l3,5.5
					c0.8,1.4,0.5,3.1-0.6,4.3l0,0c-2,2.1-4.7,3.5-7.5,3.8l-5.8,0.7L879.7,759.5z"/>
				<path fill="#F2A5C7" d="M882.4,751.8l10.2-8.2c0.5-0.4,1.1-0.4,1.6-0.1l0,0c0.7,0.4,0.8,1.4,0.4,2l-4.6,6.3L882.4,751.8z"/>
				<path fill="#FAFBFF" d="M834.1,747.4c-3.1-2.2-7.7-1.2-10.5,1.3l-4.9,4.4c0,0,14.6,19.2,24.2,28.5c5.5,5.4,13.1,4.9,18.8-0.3
					l0,0C852.9,769,847.4,757.1,834.1,747.4z"/>
				<path fill="#FAFBFF" d="M885.1,765.4l-4.8-7.9c-12.8,3.7-25.1,10.5-30.3,14.8c-3.3,2.7-1.8,3.7,0.6,7.3l0,0c2,3.1,5.6,5,8.9,3.4
					C865.5,780,877,773.3,885.1,765.4z"/>
			</g>
		</g>
		<rect x="786.7" y="808" fill="#FAFBFF" width="43.5" height="8.2"/>
	</g>
	<g>
		<g>
			<g>
				<path fill="#6C2196" d="M1103.1,364.7c-0.8,0-1.5-0.7-1.5-1.5v-44.7c0-0.8,0.7-1.5,1.5-1.5c0.8,0,1.5,0.7,1.5,1.5v44.7
					C1104.5,364,1103.9,364.7,1103.1,364.7z"/>
			</g>
			<g>
				<path fill="#6C2196" d="M1057.7,379.8h90.7c2.9,1.3,1.1,2.9-1.4,2.9h-88C1056.6,382.8,1054.8,381.1,1057.7,379.8z"/>
			</g>
			<polygon fill="#A05CC4" points="1091.8,312.8 1028.8,307.7 1028.8,301.1 1091.8,303.7 			"/>
			<g>
				<path fill="#6C2196" d="M1028.8,287.9l35.5-2.7l0,0c0,3.1-2.5,5.5-5.5,5.5h-30V287.9z"/>
				<path fill="#6C2196" d="M1017.9,287.9l-30-2.3c-3-0.2-5.5,2.1-5.5,5.1l0,0h35.5V287.9z"/>
				<path fill="#FFFFFF" d="M1023.3,285.2L1023.3,285.2c-3.5,0-6.3,2.8-6.3,6.3v2h12.5v-2C1029.6,288,1026.8,285.2,1023.3,285.2z"/>
				<rect x="1015" y="291.9" fill="#6C2196" width="16.7" height="3.6"/>
				<path fill="#A05CC4" d="M1031.3,300.3h-15.9v15.3c0,1.7,1.4,3.2,3.2,3.2h9.6c1.7,0,3.2-1.4,3.2-3.2V300.3z"/>
				<rect x="1012.9" y="295.5" fill="#6C2196" width="20.9" height="16"/>
				<rect x="1012.9" y="301.4" fill="#FFFFFF" width="20.9" height="4.1"/>
			</g>
			<polygon fill="#A05CC4" points="1114.3,312.8 1177.4,307.7 1177.4,301.1 1114.3,303.7 			"/>
			<g>
				<path fill="#6C2196" d="M1177.4,287.9l-30-2.3c-3-0.2-5.5,2.1-5.5,5.1l0,0h35.5V287.9z"/>
				<path fill="#6C2196" d="M1188.2,287.9l35.5-2.7l0,0c0,3.1-2.5,5.5-5.5,5.5h-30V287.9z"/>
				<path fill="#FFFFFF" d="M1182.8,285.2L1182.8,285.2c3.5,0,6.3,2.8,6.3,6.3v2h-12.5v-2C1176.5,288,1179.3,285.2,1182.8,285.2z"/>
				
					<rect x="1174.4" y="291.9" transform="matrix(-1 -1.224647e-16 1.224647e-16 -1 2365.5413 587.3386)" fill="#6C2196" width="16.7" height="3.6"/>
				<path fill="#A05CC4" d="M1174.8,300.3h15.9v15.3c0,1.7-1.4,3.2-3.2,3.2h-9.6c-1.7,0-3.2-1.4-3.2-3.2V300.3z"/>
				
					<rect x="1172.3" y="295.5" transform="matrix(-1 -1.224647e-16 1.224647e-16 -1 2365.541 606.8774)" fill="#6C2196" width="20.9" height="16"/>
				
					<rect x="1172.3" y="301.4" transform="matrix(-1 -1.224647e-16 1.224647e-16 -1 2365.541 606.8774)" fill="#FFFFFF" width="20.9" height="4.1"/>
			</g>
			<path fill="#6C2196" d="M1106.6,283h-7.1c-10.4,0-18.9,8.5-18.9,18.9l0,0h45l0,0C1125.5,291.5,1117.1,283,1106.6,283z"/>
			<path fill="#FFFFFF" d="M1139,298h-71.8c-1.4,0-2.6,1.1-2.6,2.6v13.8c0,1.4,1.1,2.6,2.6,2.6h71.8c1.4,0,2.6-1.1,2.6-2.6v-13.8
				C1141.5,299.1,1140.4,298,1139,298z"/>
			<path fill="#6C2196" d="M1064.6,314.3c0,1.4,1.1,2.6,2.6,2.6h71.8c1.4,0,2.6-1.1,2.6-2.6v-10.5h-76.9V314.3z"/>
			<path fill="#A05CC4" d="M1135.6,316.9h-65.2l0,0c2.6,5.8,8.3,9.5,14.6,9.5h36C1127.4,326.3,1133.1,322.6,1135.6,316.9
				L1135.6,316.9z"/>
			<polygon fill="#6C2196" points="1109.6,316.9 1096.5,316.9 1097.4,326.3 1108.7,326.3 			"/>
			<g>
				<path fill="#6C2196" d="M1056.6,382.9c-0.8,0-1.5-0.7-1.5-1.5v-26.6c0-14.1,7.1-27,18.9-34.5c0.7-0.4,1.6-0.2,2,0.5
					c0.4,0.7,0.2,1.6-0.5,2c-11,7-17.6,19-17.6,32v26.6C1058.1,382.3,1057.4,382.9,1056.6,382.9z"/>
			</g>
			<g>
				<path fill="#6C2196" d="M1149.5,382.9c-0.8,0-1.5-0.7-1.5-1.5v-26.6c0-13-6.6-25-17.6-32c-0.7-0.4-0.9-1.3-0.5-2
					c0.4-0.7,1.3-0.9,2-0.5c11.9,7.5,18.9,20.4,18.9,34.5v26.6C1151,382.3,1150.3,382.9,1149.5,382.9z"/>
			</g>
			<path fill="#A05CC4" d="M1058.2,384.2h-3.1c-1.6,0-2.9-1.3-2.9-2.9l0,0c0-1.6,1.3-2.9,2.9-2.9h3.1c1.6,0,2.9,1.3,2.9,2.9l0,0
				C1061.1,382.9,1059.8,384.2,1058.2,384.2z"/>
			<path fill="#A05CC4" d="M1058.2,370.9h-3.1c-1.6,0-2.9-1.3-2.9-2.9l0,0c0-1.6,1.3-2.9,2.9-2.9h3.1c1.6,0,2.9,1.3,2.9,2.9l0,0
				C1061.1,369.6,1059.8,370.9,1058.2,370.9z"/>
			<path fill="#A05CC4" d="M1147.7,384.2h3.1c1.6,0,2.9-1.3,2.9-2.9l0,0c0-1.6-1.3-2.9-2.9-2.9h-3.1c-1.6,0-2.9,1.3-2.9,2.9l0,0
				C1144.7,382.9,1146,384.2,1147.7,384.2z"/>
			<path fill="#A05CC4" d="M1147.7,370.9h3.1c1.6,0,2.9-1.3,2.9-2.9l0,0c0-1.6-1.3-2.9-2.9-2.9h-3.1c-1.6,0-2.9,1.3-2.9,2.9l0,0
				C1144.7,369.6,1146,370.9,1147.7,370.9z"/>
			<path fill="#A05CC4" d="M1092.5,322.6h21v-10.5c0-5.8-4.7-10.5-10.5-10.5h0c-5.8,0-10.5,4.7-10.5,10.5V322.6z"/>
			
				<ellipse transform="matrix(0.9732 -0.2298 0.2298 0.9732 -42.1991 261.7816)" fill="#6C2196" cx="1103.1" cy="312.1" rx="7.4" ry="7.4"/>
			<path fill="#BCB6F9" d="M1097.9,312.1c0,2.8,2.3,5.1,5.1,5.1c2.8,0,5.1-2.3,5.1-5.1c0-2.8-2.3-5.1-5.1-5.1
				C1100.2,307,1097.9,309.3,1097.9,312.1z"/>
			<path fill="#FFFFFF" d="M1099.2,310.7c0,1.4,1.1,2.5,2.5,2.5c1.4,0,2.5-1.1,2.5-2.5c0-1.4-1.1-2.5-2.5-2.5
				C1100.3,308.2,1099.2,309.3,1099.2,310.7z"/>
			<path fill="#FFFFFF" d="M1101.9,314.6c0,0.7,0.5,1.2,1.2,1.2c0.7,0,1.2-0.5,1.2-1.2c0-0.7-0.5-1.2-1.2-1.2
				C1102.4,313.4,1101.9,313.9,1101.9,314.6z"/>
			<path fill="#A05CC4" d="M1098.6,298h8.8v-3.6c0-2.4-2-4.4-4.4-4.4h0c-2.4,0-4.4,2-4.4,4.4V298z"/>
			<g>
				<path fill="#6C2196" d="M1145.8,305.5L1145.8,305.5c-0.5,0-0.8,0.4-0.8,0.8v2.4c0,0.5,0.4,0.8,0.8,0.8l0,0
					c0.5,0,0.8-0.4,0.8-0.8v-2.4C1146.7,305.8,1146.3,305.5,1145.8,305.5z"/>
				<path fill="#6C2196" d="M1148.6,305.3L1148.6,305.3c-0.5,0-0.8,0.4-0.8,0.8v2.4c0,0.5,0.4,0.8,0.8,0.8l0,0
					c0.5,0,0.8-0.4,0.8-0.8v-2.4C1149.5,305.7,1149.1,305.3,1148.6,305.3z"/>
				<path fill="#6C2196" d="M1151.4,305.1L1151.4,305.1c-0.5,0-0.8,0.4-0.8,0.8v2.4c0,0.5,0.4,0.8,0.8,0.8l0,0
					c0.5,0,0.8-0.4,0.8-0.8V306C1152.3,305.5,1151.9,305.1,1151.4,305.1z"/>
				<path fill="#6C2196" d="M1154.2,305L1154.2,305c-0.5,0-0.8,0.4-0.8,0.8v2.4c0,0.5,0.4,0.8,0.8,0.8l0,0c0.5,0,0.8-0.4,0.8-0.8
					v-2.4C1155.1,305.3,1154.7,305,1154.2,305z"/>
			</g>
			<g>
				<path fill="#6C2196" d="M1060.3,305.5L1060.3,305.5c0.5,0,0.8,0.4,0.8,0.8v2.4c0,0.5-0.4,0.8-0.8,0.8l0,0
					c-0.5,0-0.8-0.4-0.8-0.8v-2.4C1059.4,305.8,1059.8,305.5,1060.3,305.5z"/>
				<path fill="#6C2196" d="M1057.5,305.3L1057.5,305.3c0.5,0,0.8,0.4,0.8,0.8v2.4c0,0.5-0.4,0.8-0.8,0.8l0,0
					c-0.5,0-0.8-0.4-0.8-0.8v-2.4C1056.6,305.7,1057,305.3,1057.5,305.3z"/>
				<path fill="#6C2196" d="M1054.7,305.1L1054.7,305.1c0.5,0,0.8,0.4,0.8,0.8v2.4c0,0.5-0.4,0.8-0.8,0.8l0,0
					c-0.5,0-0.8-0.4-0.8-0.8V306C1053.8,305.5,1054.2,305.1,1054.7,305.1z"/>
				<path fill="#6C2196" d="M1051.9,305L1051.9,305c0.5,0,0.8,0.4,0.8,0.8v2.4c0,0.5-0.4,0.8-0.8,0.8l0,0c-0.5,0-0.8-0.4-0.8-0.8
					v-2.4C1051,305.3,1051.4,305,1051.9,305z"/>
			</g>
			<g>
				<path fill="#BCB6F9" d="M1073.8,302.7h-3.6c-0.9,0-1.5-0.7-1.5-1.5l0,0c0-0.9,0.7-1.5,1.5-1.5h3.6c0.9,0,1.5,0.7,1.5,1.5l0,0
					C1075.4,302,1074.7,302.7,1073.8,302.7z"/>
				<path fill="#FFFFFF" d="M1069.7,300.9c0,0.4,0.3,0.7,0.7,0.7c0.4,0,0.7-0.3,0.7-0.7c0-0.4-0.3-0.7-0.7-0.7
					C1070,300.2,1069.7,300.5,1069.7,300.9z"/>
			</g>
		</g>
		<g>
			
				<ellipse transform="matrix(0.7071 -0.7071 0.7071 0.7071 47.4639 893.7394)" fill="#32325D" stroke="#FFFFFF" stroke-miterlimit="10" cx="1102.6" cy="389.6" rx="40.4" ry="40.4"/>
		</g>
	</g>
	<g>
		<g>
			<path fill="#062839" d="M80.9,889.8h201.7c5.4,0,9.8,4.4,9.8,9.8v78.7H75.2v-82.8C75.2,892.4,77.7,889.8,80.9,889.8z"/>
			<path opacity="0.5" fill="#062839" d="M75.2,928v-32.5c0-3.2,2.6-5.7,5.7-5.7h201.7c5.4,0,9.8,4.4,9.8,9.8V928H75.2z"/>
			<path fill="#062839" d="M75.7,903.9c-0.2,0-0.4,0-0.6,0.1v-8.5c0-3.2,2.6-5.7,5.7-5.7h201.7c5.4,0,9.8,4.4,9.8,9.8v4.3H75.7z"/>
			<path fill="#FFFFFF" d="M80.9,889.8h201.7c5.4,0,9.8,4.4,9.8,9.8v78.7H75.2v-82.8C75.2,892.4,77.7,889.8,80.9,889.8z"/>
			<path fill="#062839" d="M90.2,986.8v-8.5h241.3c5.1,0,9.3,3.7,10.1,8.5H90.2z"/>
			<polygon fill="#9087F4" points="149,1064.7 141.7,1064.7 124.3,989.4 131.7,989.4 			"/>
			<rect x="86.3" y="989.4" fill="#9087F4" width="7.3" height="75.3"/>
			<polygon fill="#9087F4" points="336.3,1064.7 329,1064.7 311.7,989.4 319,989.4 			"/>
			<rect x="273.7" y="989.4" fill="#9087F4" width="7.3" height="75.3"/>
			<path fill="#BCB6F9" d="M90.2,969h241.3c5.7,0,10.3,4.6,10.3,10.3l0,0c0,5.7-4.6,10.3-10.3,10.3H90.2V969z"/>
			<path fill="#FFFFFF" d="M331.5,969H90.2v5.1h250.1C338.5,971,335.2,969,331.5,969z"/>
			<g>
				<g>
					<rect x="90.2" y="961.9" fill="#BCB6F9" width="202.2" height="5.5"/>
				</g>
				<g>
					<rect x="90.2" y="946.6" fill="#BCB6F9" width="202.2" height="5.5"/>
				</g>
				<g>
					<rect x="90.2" y="931.3" fill="#BCB6F9" width="202.2" height="5.5"/>
				</g>
				<g>
					<rect x="90.2" y="916" fill="#BCB6F9" width="202.2" height="5.5"/>
				</g>
				<g>
					<rect x="90.2" y="900.8" fill="#BCB6F9" width="202.2" height="5.5"/>
				</g>
			</g>
			<path fill="#BCB6F9" d="M82.7,889.8L82.7,889.8c4.2,0,7.5,3.4,7.5,7.5v92.2h-2.7c-6.8,0-12.3-5.5-12.3-12.3v-79.9
				C75.2,893.2,78.5,889.8,82.7,889.8z"/>
			<path fill="#BCB6F9" d="M114.2,989.5H85c-5.4,0-9.8-4.4-9.8-9.8V969h39c5.7,0,10.3,4.6,10.3,10.3l0,0
				C124.4,984.9,119.8,989.5,114.2,989.5z"/>
		</g>
		<g>
			<g>
				<path fill="#F2A5C7" d="M232.1,896.2c-1.2,0.5-2.7-0.1-3.2-1.3l-6.3-13.4l-14.5,8l7,15.9c4.5,9.5,12.1,10.4,19.1,6.6l8.2-4.6
					L232.1,896.2z"/>
			</g>
			<path fill="#F5968C" d="M221.4,929.5l9.5-2.9c0.8-0.2,1.6,0.1,2.1,0.8l0,0c0.6,0.9,0.2,2.2-0.8,2.6l-9.4,4.3L221.4,929.5z"/>
			<path fill="#AAD6AA" d="M208.2,846.8c8.5,6.5,18.1,37.5,18.1,37.5l-17.2,9.6l-8.7-26.3L208.2,846.8z"/>
			<g>
				<defs>
					<path id="SVGID_5_" d="M208.6,847.3c-0.7-1.4-2.2-2.1-3.4-3c-6.3-4.3-21.2-6.5-21.2-6.5c-7.3-0.3-15.3,1.5-24.8,12.3
						c-9.5,10.8-18,51.6-15,86.3c12.7-2,52.2-5,52.2-5s0.5-8.6,1.6-16.9c0.9-6.6,3.8-12.8,8.4-17.7c5.3-5.6,7.1-10.8,7.1-10.8
						S214.6,859.1,208.6,847.3z"/>
				</defs>
				<use xlink:href="#SVGID_5_"  overflow="visible" fill="#D2F2D2"/>
				<clipPath id="SVGID_6_">
					<use xlink:href="#SVGID_5_"  overflow="visible"/>
				</clipPath>
				<g clip-path="url(#SVGID_6_)">
					<path fill="#FFFFFF" d="M145.4,932.9c1.3,0,2.4-1,2.5-2.3c0-1.3-1-2.4-2.3-2.5c-1.3,0-2.4,1-2.5,2.3
						C143,931.8,144.1,932.9,145.4,932.9z"/>
					<path fill="#FFFFFF" d="M145.8,920.8c1.3,0,2.4-1,2.5-2.3c0-1.3-1-2.4-2.3-2.5c-1.3,0-2.4,1-2.5,2.3
						C143.5,919.6,144.5,920.8,145.8,920.8z"/>
					<path fill="#FFFFFF" d="M146.2,908.7c1.3,0,2.4-1,2.5-2.3c0-1.3-1-2.4-2.3-2.5c-1.3,0-2.4,1-2.5,2.3
						C143.9,907.5,144.9,908.6,146.2,908.7z"/>
					<path fill="#FFFFFF" d="M146.6,896.6c1.3,0,2.4-1,2.5-2.3c0-1.3-1-2.4-2.3-2.5c-1.3,0-2.4,1-2.5,2.3
						C144.3,895.4,145.3,896.5,146.6,896.6z"/>
					<path fill="#FFFFFF" d="M147,884.4c1.3,0,2.4-1,2.5-2.3c0-1.3-1-2.4-2.3-2.5c-1.3,0-2.4,1-2.5,2.3
						C144.7,883.3,145.7,884.4,147,884.4z"/>
					<path fill="#FFFFFF" d="M147.5,872.3c1.3,0,2.4-1,2.5-2.3c0-1.3-1-2.4-2.3-2.5c-1.3,0-2.4,1-2.5,2.3
						C145.1,871.2,146.1,872.3,147.5,872.3z"/>
					<path fill="#FFFFFF" d="M155.5,927.2c1.3,0,2.4-1,2.5-2.3c0-1.3-1-2.4-2.3-2.5c-1.3,0-2.4,1-2.5,2.3
						C153.2,926,154.2,927.2,155.5,927.2z"/>
					<path fill="#FFFFFF" d="M155.9,915.1c1.3,0,2.4-1,2.5-2.3c0-1.3-1-2.4-2.3-2.5c-1.3,0-2.4,1-2.5,2.3
						C153.6,913.9,154.6,915,155.9,915.1z"/>
					<path fill="#FFFFFF" d="M156.3,903c1.3,0,2.4-1,2.5-2.3c0-1.3-1-2.4-2.3-2.5c-1.3,0-2.4,1-2.5,2.3
						C154,901.8,155,902.9,156.3,903z"/>
					<path fill="#FFFFFF" d="M156.8,890.8c1.3,0,2.4-1,2.5-2.3c0-1.3-1-2.4-2.3-2.5c-1.3,0-2.4,1-2.5,2.3
						C154.4,889.7,155.4,890.8,156.8,890.8z"/>
					<path fill="#FFFFFF" d="M157.2,878.7c1.3,0,2.4-1,2.5-2.3c0-1.3-1-2.4-2.3-2.5c-1.3,0-2.4,1-2.5,2.3
						C154.8,877.6,155.8,878.7,157.2,878.7z"/>
					<path fill="#FFFFFF" d="M165.2,933.6c1.3,0,2.4-1,2.5-2.3c0-1.3-1-2.4-2.3-2.5c-1.3,0-2.4,1-2.5,2.3
						C162.9,932.4,163.9,933.5,165.2,933.6z"/>
					<path fill="#FFFFFF" d="M165.6,921.5c1.3,0,2.4-1,2.5-2.3c0-1.3-1-2.4-2.3-2.5c-1.3,0-2.4,1-2.5,2.3
						C163.3,920.3,164.3,921.4,165.6,921.5z"/>
					<path fill="#FFFFFF" d="M166,909.4c1.3,0,2.4-1,2.5-2.3c0-1.3-1-2.4-2.3-2.5c-1.3,0-2.4,1-2.5,2.3
						C163.7,908.2,164.7,909.3,166,909.4z"/>
					<path fill="#FFFFFF" d="M166.5,897.2c1.3,0,2.4-1,2.5-2.3c0-1.3-1-2.4-2.3-2.5c-1.3,0-2.4,1-2.5,2.3
						C164.1,896.1,165.1,897.2,166.5,897.2z"/>
					<path fill="#FFFFFF" d="M166.9,885.1c1.3,0,2.4-1,2.5-2.3c0-1.3-1-2.4-2.3-2.5c-1.3,0-2.4,1-2.5,2.3
						C164.5,884,165.6,885.1,166.9,885.1z"/>
					<path fill="#FFFFFF" d="M167.3,873c1.3,0,2.4-1,2.5-2.3c0-1.3-1-2.4-2.3-2.5c-1.3,0-2.4,1-2.5,2.3
						C164.9,871.9,166,873,167.3,873z"/>
					<path fill="#FFFFFF" d="M175.3,927.9c1.3,0,2.4-1,2.5-2.3c0-1.3-1-2.4-2.3-2.5c-1.3,0-2.4,1-2.5,2.3
						C173,926.7,174,927.8,175.3,927.9z"/>
					<path fill="#FFFFFF" d="M175.8,915.8c1.3,0,2.4-1,2.5-2.3c0-1.3-1-2.4-2.3-2.5c-1.3,0-2.4,1-2.5,2.3
						C173.4,914.6,174.4,915.7,175.8,915.8z"/>
					<path fill="#FFFFFF" d="M176.2,903.6c1.3,0,2.4-1,2.5-2.3c0-1.3-1-2.4-2.3-2.5c-1.3,0-2.4,1-2.5,2.3
						C173.8,902.5,174.9,903.6,176.2,903.6z"/>
					<path fill="#FFFFFF" d="M176.6,891.5c1.3,0,2.4-1,2.5-2.3c0-1.3-1-2.4-2.3-2.5c-1.3,0-2.4,1-2.5,2.3
						C174.2,890.4,175.3,891.5,176.6,891.5z"/>
					<path fill="#FFFFFF" d="M178,879.7c1.3,0,2.4-1,2.5-2.3c0-1.3-1-2.4-2.3-2.5c-1.3,0-2.4,1-2.5,2.3
						C175.6,878.5,176.7,879.6,178,879.7z"/>
					<path fill="#FFFFFF" d="M185.1,934.3c1.3,0,2.4-1,2.5-2.3c0-1.3-1-2.4-2.3-2.5c-1.3,0-2.4,1-2.5,2.3
						C182.7,933.1,183.7,934.2,185.1,934.3z"/>
					<path fill="#FFFFFF" d="M185.5,922.2c1.3,0,2.4-1,2.5-2.3c0-1.3-1-2.4-2.3-2.5c-1.3,0-2.4,1-2.5,2.3
						C183.1,921,184.1,922.1,185.5,922.2z"/>
					<path fill="#FFFFFF" d="M185.9,910c1.3,0,2.4-1,2.5-2.3c0-1.3-1-2.4-2.3-2.5c-1.3,0-2.4,1-2.5,2.3
						C183.5,908.9,184.6,910,185.9,910z"/>
					<path fill="#FFFFFF" d="M186.3,897.9c1.3,0,2.4-1,2.5-2.3c0-1.3-1-2.4-2.3-2.5c-1.3,0-2.4,1-2.5,2.3
						C183.9,896.8,185,897.9,186.3,897.9z"/>
					<path fill="#FFFFFF" d="M186.7,886.2c1.3,0,2.4-1,2.5-2.3c0-1.3-1-2.4-2.3-2.5c-1.3,0-2.4,1-2.5,2.3
						C184.3,885.1,185.4,886.2,186.7,886.2z"/>
					<path fill="#FFFFFF" d="M188.4,873.4c1.3,0,2.4-1,2.5-2.3c0-1.3-1-2.4-2.3-2.5c-1.3,0-2.4,1-2.5,2.3
						C186.1,872.2,187.1,873.3,188.4,873.4z"/>
					<path fill="#FFFFFF" d="M195.2,928.5c1.3,0,2.4-1,2.5-2.3c0-1.3-1-2.4-2.3-2.5c-1.3,0-2.4,1-2.5,2.3
						C192.8,927.4,193.9,928.5,195.2,928.5z"/>
					<path fill="#FFFFFF" d="M195.6,916.4c1.3,0,2.4-1,2.5-2.3c0-1.3-1-2.4-2.3-2.5c-1.3,0-2.4,1-2.5,2.3
						C193.2,915.3,194.3,916.4,195.6,916.4z"/>
					<path fill="#FFFFFF" d="M196,904.3c1.3,0,2.4-1,2.5-2.3c0-1.3-1-2.4-2.3-2.5c-1.3,0-2.4,1-2.5,2.3
						C193.6,903.2,194.7,904.3,196,904.3z"/>
					<path fill="#FFFFFF" d="M199.2,893.1c1.3,0,2.4-1,2.5-2.3c0-1.3-1-2.4-2.3-2.5c-1.3,0-2.4,1-2.5,2.3
						C196.8,892,197.9,893.1,199.2,893.1z"/>
					<path fill="#FFFFFF" d="M197.9,881.6c1.3,0,2.4-1,2.5-2.3c0-1.3-1-2.4-2.3-2.5c-1.3,0-2.4,1-2.5,2.3
						C195.6,880.5,196.6,881.6,197.9,881.6z"/>
					<path fill="#FFFFFF" d="M147.9,860.2c1.3,0,2.4-1,2.5-2.3c0-1.3-1-2.4-2.3-2.5c-1.3,0-2.4,1-2.5,2.3
						C145.5,859.1,146.6,860.2,147.9,860.2z"/>
					<path fill="#FFFFFF" d="M157.6,866.6c1.3,0,2.4-1,2.5-2.3c0-1.3-1-2.4-2.3-2.5c-1.3,0-2.4,1-2.5,2.3
						C155.2,865.5,156.3,866.6,157.6,866.6z"/>
					<path fill="#FFFFFF" d="M167.7,860.9c1.3,0,2.4-1,2.5-2.3c0-1.3-1-2.4-2.3-2.5c-1.3,0-2.4,1-2.5,2.3
						C165.4,859.7,166.4,860.8,167.7,860.9z"/>
					<path fill="#FFFFFF" d="M177.4,867.3c1.3,0,2.4-1,2.5-2.3c0-1.3-1-2.4-2.3-2.5c-1.3,0-2.4,1-2.5,2.3
						C175.1,866.1,176.1,867.2,177.4,867.3z"/>
					<path fill="#FFFFFF" d="M190.2,862.1c1.3,0,2.4-1,2.5-2.3c0-1.3-1-2.4-2.3-2.5c-1.3,0-2.4,1-2.5,2.3
						C187.8,861,188.9,862.1,190.2,862.1z"/>
					<path fill="#FFFFFF" d="M199.2,869.4c1.3,0,2.4-1,2.5-2.3c0-1.3-1-2.4-2.3-2.5c-1.3,0-2.4,1-2.5,2.3
						C196.8,868.2,197.9,869.3,199.2,869.4z"/>
					<path fill="#FFFFFF" d="M147.9,860.2c1.3,0,2.4-1,2.5-2.3c0-1.3-1-2.4-2.3-2.5c-1.3,0-2.4,1-2.5,2.3
						C145.5,859.1,146.6,860.2,147.9,860.2z"/>
					<path fill="#FFFFFF" d="M148.3,848.1c1.3,0,2.4-1,2.5-2.3c0-1.3-1-2.4-2.3-2.5c-1.3,0-2.4,1-2.5,2.3
						C145.9,846.9,147,848.1,148.3,848.1z"/>
					<path fill="#FFFFFF" d="M158,854.5c1.3,0,2.4-1,2.5-2.3c0-1.3-1-2.4-2.3-2.5c-1.3,0-2.4,1-2.5,2.3
						C155.6,853.3,156.7,854.4,158,854.5z"/>
					<path fill="#FFFFFF" d="M167.7,860.9c1.3,0,2.4-1,2.5-2.3c0-1.3-1-2.4-2.3-2.5c-1.3,0-2.4,1-2.5,2.3
						C165.4,859.7,166.4,860.8,167.7,860.9z"/>
					<path fill="#FFFFFF" d="M168.1,848.8c1.3,0,2.4-1,2.5-2.3c0-1.3-1-2.4-2.3-2.5c-1.3,0-2.4,1-2.5,2.3
						C165.8,847.6,166.8,848.7,168.1,848.8z"/>
					<path fill="#FFFFFF" d="M177.8,855.2c1.3,0,2.4-1,2.5-2.3c0-1.3-1-2.4-2.3-2.5c-1.3,0-2.4,1-2.5,2.3
						C175.5,854,176.5,855.1,177.8,855.2z"/>
					<path fill="#FFFFFF" d="M187.9,849.4c1.3,0,2.4-1,2.5-2.3c0-1.3-1-2.4-2.3-2.5c-1.3,0-2.4,1-2.5,2.3
						C185.6,848.3,186.6,849.4,187.9,849.4z"/>
					<path fill="#FFFFFF" d="M203.4,855.1c1.3,0,2.4-1,2.5-2.3c0-1.3-1-2.4-2.3-2.5c-1.3,0-2.4,1-2.5,2.3
						C201.1,854,202.1,855.1,203.4,855.1z"/>
					<path fill="#FFFFFF" d="M148.3,848.1c1.3,0,2.4-1,2.5-2.3c0-1.3-1-2.4-2.3-2.5c-1.3,0-2.4,1-2.5,2.3
						C145.9,846.9,147,848.1,148.3,848.1z"/>
					<path fill="#FFFFFF" d="M148.7,836c1.3,0,2.4-1,2.5-2.3c0-1.3-1-2.4-2.3-2.5c-1.3,0-2.4,1-2.5,2.3
						C146.3,834.8,147.4,835.9,148.7,836z"/>
					<path fill="#FFFFFF" d="M207.7,884.6c1.3,0,2.4-1,2.5-2.3c0-1.3-1-2.4-2.3-2.5c-1.3,0-2.4,1-2.5,2.3
						C205.3,883.5,206.4,884.6,207.7,884.6z"/>
					<path fill="#FFFFFF" d="M168.1,848.8c1.3,0,2.4-1,2.5-2.3c0-1.3-1-2.4-2.3-2.5c-1.3,0-2.4,1-2.5,2.3
						C165.8,847.6,166.8,848.7,168.1,848.8z"/>
					<path fill="#FFFFFF" d="M168.5,836.7c1.3,0,2.4-1,2.5-2.3c0-1.3-1-2.4-2.3-2.5c-1.3,0-2.4,1-2.5,2.3
						C166.2,835.5,167.2,836.6,168.5,836.7z"/>
					<path fill="#FFFFFF" d="M178.2,843.1c1.3,0,2.4-1,2.5-2.3c0-1.3-1-2.4-2.3-2.5c-1.3,0-2.4,1-2.5,2.3
						C175.9,841.9,176.9,843,178.2,843.1z"/>
					<path fill="#FFFFFF" d="M188.4,837.3c1.3,0,2.4-1,2.5-2.3c0-1.3-1-2.4-2.3-2.5c-1.3,0-2.4,1-2.5,2.3
						C186,836.2,187,837.3,188.4,837.3z"/>
					<path fill="#FFFFFF" d="M208.4,864.6c1.3,0,2.4-1,2.5-2.3c0-1.3-1-2.4-2.3-2.5c-1.3,0-2.4,1-2.5,2.3
						C206.1,863.5,207.1,864.6,208.4,864.6z"/>
				</g>
			</g>
			<path fill="#F2A5C7" d="M172.8,885.5l1.3,13.7c0.1,1.1,0.7,2.2,1.6,2.9l32.2,23.2c0.9,0.6,1.9,1,3,1h7.6c3,0,5.9,1.1,8.1,3.1
				l9,8.2l-1.5,3.8l-35.4-4.9l-2.4-5l-33.2-20.2c-2.7-1.7-4.6-4.5-5-7.6l-1.8-14L172.8,885.5z"/>
			<line fill="#028169" x1="175.5" y1="884.8" x2="154.7" y2="889.8"/>
			<path fill="#028169" d="M175.5,884.8l-0.4-4c-0.3-3.8,0.1-7.6,1.3-11.2l0,0"/>
			<line fill="none" stroke="#028169" stroke-miterlimit="10" x1="154.8" y1="890.1" x2="154.8" y2="873.4"/>
			<path fill="#55557F" d="M256.9,939.7c-24.9-14.3-112.6-3.3-112.6-3.3s-0.6,10.6,2.2,19.4c2.8,8.8,10.3,13.4,28.3,13.4
				c32.5,0,60.6-16.7,60.6-16.7c6.4,22.9,13.3,44.8,21.9,61.8l13.2-1.2C270.4,1013,268.8,949.7,256.9,939.7z"/>
			<path fill="#32325D" d="M245.3,956.5c-1.2-5.3-5.6-9.3-11-9.9c-2.9-0.3-5.8,0.4-8.2,2.2l-21.9,16.3l18,0.5
				c-3,26.4-2.3,50.1,0,72.5h16.7c0,0,4-23.1,7.2-40.8C248.5,983.8,248.3,970,245.3,956.5z"/>
			<path fill="none" stroke="#312C74" stroke-width="0.4178" stroke-miterlimit="10" d="M222.2,965.6c0.1-1.1,0.2-2.2,0.4-3.3"/>
			<path fill="#FFC587" d="M257.3,1014.2l13.2-1.2l3.5,5.4c4.4,6.8,9.2,13.4,14.3,19.6c3.9,4.7,7.9,11.2,4.1,14.5
				c-6.4,5.6-19.5-5.2-21.9-7.2c-1.6-1.3-8.7-9.4-13.2-14.6c-2.4-2.8-3.2-6.7-2-10.2L257.3,1014.2z"/>
			<line fill="none" stroke="#312C74" stroke-miterlimit="10" x1="254.8" y1="1008.7" x2="270" y2="1007.5"/>
			<path fill="#FFFFFF" d="M293.2,1050.2c-6.7,5.9-20.5-5.4-23-7.5c-1.7-1.4-9.1-9.9-13.9-15.4c-0.7-0.8-1.2-1.6-1.7-2.5
				c0.2,2.2,1.1,4.2,2.5,5.9c4.5,5.2,11.6,13.3,13.2,14.6c2.4,2,15.5,12.8,21.9,7.2c0.9-0.8,1.4-1.8,1.5-2.9
				C293.7,1049.8,293.5,1050,293.2,1050.2z"/>
			<path fill="#FFC587" d="M238.9,1038.2c2.6,7.9,10.2,12.9,19.1,17.3c2.8,1.4,4.5,4.2,4.5,7.2v2.1h-39c-2.1,0-3.8-1.6-3.9-3.6
				c-0.2-3-0.3-7.5,0.8-11.9c1.3-5.1,1.7-11,1.7-11H238.9z"/>
			<path fill="#FFFFFF" d="M219.9,1062.3c0.6,1.4,2,2.4,3.6,2.4h39v-2.1c0-0.1,0-0.2,0-0.3H219.9z"/>
			<path fill="#028169" d="M179.8,888.4c0,3.4,2.8,6.2,6.2,6.2l0,0"/>
			<path fill="none" stroke="#312C74" stroke-miterlimit="10" d="M249.1,942.4c1,3.9,3,6.3,6.1,6.9"/>
			
				<line fill="none" stroke="#FFFFFF" stroke-width="0.8355" stroke-miterlimit="10" x1="274.7" y1="1019.6" x2="267.8" y2="1023.2"/>
			<line fill="none" stroke="#FFFFFF" stroke-width="0.8355" stroke-miterlimit="10" x1="278.6" y1="1025.3" x2="271.8" y2="1029"/>
			
				<line fill="none" stroke="#FFFFFF" stroke-width="0.8355" stroke-miterlimit="10" x1="282.6" y1="1031.1" x2="275.8" y2="1034.8"/>
			
				<line fill="none" stroke="#FFFFFF" stroke-width="0.8355" stroke-miterlimit="10" x1="240.6" y1="1041.7" x2="235.3" y2="1044.5"/>
			<line fill="none" stroke="#FFFFFF" stroke-width="0.8355" stroke-miterlimit="10" x1="244" y1="1045.7" x2="239" y2="1048.9"/>
			<line fill="none" stroke="#FFFFFF" stroke-width="0.8355" stroke-miterlimit="10" x1="248.2" y1="1049.4" x2="244.2" y2="1053"/>
			<line fill="none" stroke="#312C74" stroke-miterlimit="10" x1="239.6" y1="1032.8" x2="222" y2="1032.8"/>
			<g>
				<path fill="#171754" d="M192,844.7c-17.6,9-31.9-3.1-31.9-3.1c9.9-5.1,13.2-19.7,13.2-24.3l9-4L192,844.7z"/>
				<path fill="#D481A6" d="M201,841.9l0,0.1c1.2,6.4-3.8,12.4-10.3,12.4h0c-6.3,0-11.2-5.5-10.4-11.7l2.5-20.6l17.4,17.2L201,841.9
					z"/>
				<g>
					<path fill="#171754" d="M220.8,815.4c-0.4,4.6,3.3,19.2,12.3,24.1c-12.6,8.5-24.7,4-24.7,4l6.1-29.1L220.8,815.4z"/>
					<path fill="#171754" d="M225.5,815.4c-0.4-12.8-4.2-21.5-10.3-26.2c-6.5-5-16.3-8.6-26.2-4.4c-9.8,4.2-17.6,16.3-15.7,32.4
						L225.5,815.4z"/>
					<path fill="#F2A5C7" d="M216.4,812.4c0,12.2-4.5,30.6-9.2,33c-4.7,2.4-8.5,2.4-13.7-1.4c-5.2-3.8-14.6-16.9-15.1-24.9
						c-0.5-8,11.8-22.1,11.8-22.1L208,803C212.3,804.5,216.4,812.4,216.4,812.4z"/>
					<path fill="#171754" d="M212.8,827c0,0.4-0.3,0.8-0.8,0.8c-0.4,0-0.8-0.3-0.8-0.8c0-0.4,0.3-0.8,0.8-0.8
						C212.4,826.3,212.8,826.6,212.8,827z"/>
					<path fill="#171754" d="M194.1,807c1.9,4.6,6.4,7.8,11.8,9.2c-1.1-1.7-2.2-3.9-2.4-6c0.4,0.8,1.3,2.1,2.3,3.3
						c3.2,4.1,8,6.8,13.2,7c2.2,0.1,4.3-0.2,6.2-1l0.2-4.5l-13.6-16l-16.2-4.1L194.1,807z"/>
					<path fill="#171754" d="M197.2,818.2c-1.5,0-2.8,0.5-3.8,1.2c0.6-1.7,2.1-2.9,3.8-2.9c1.7,0,3.2,1.2,3.8,2.9
						C200,818.7,198.6,818.2,197.2,818.2z"/>
					<path fill="#171754" d="M194.6,805.3c-0.8,6.1-4.9,11.3-10.8,13.3c-0.1,0-0.1,0-0.2,0.1c-6.9,2.3-10-4-10-4l18.5-20.3l3.5,3.1
						L194.6,805.3z"/>
					<path fill="#F2A5C7" d="M188.5,819c0,3.5-2.5,6.4-5.5,6.4c-3.1,0-5.5-2.9-5.5-6.4c0-3.5,2.5-6.4,5.5-6.4
						C186,812.6,188.5,815.4,188.5,819z"/>
					<path fill="#FFFFFF" d="M184.7,825.7c0,1.3-1.1,2.4-2.4,2.4s-2.4-1.1-2.4-2.4s1.1-2.4,2.4-2.4S184.7,824.4,184.7,825.7z"/>
					<path fill="#FFFFFF" d="M202,830.6c2.8,0,5.4-0.1,7.9-0.3c-0.1,3.4-3.6,6.1-7.9,6.1c-4.3,0-7.8-2.7-7.9-6.1
						C196.6,830.5,199.2,830.6,202,830.6z"/>
				</g>
			</g>
		</g>
		<g>
			
				<rect x="163.1" y="932.6" transform="matrix(-1 -1.224647e-16 1.224647e-16 -1 385.5584 1869.1766)" fill="#9087F4" width="59.4" height="3.9"/>
			<path fill="#9087F4" d="M216.5,888.1h62.1l-14.9,48.4h-63.9l14.4-46.7C214.4,888.8,215.4,888.1,216.5,888.1z"/>
			<path fill="#FFFFFF" d="M221.5,888.1h58.6c1.7,0,3,1.7,2.5,3.3l-13.3,43.3c-0.3,1.1-1.3,1.8-2.5,1.8h-62l14.4-46.7
				C219.5,888.8,220.4,888.1,221.5,888.1z"/>
			<path opacity="0.4" fill="#A1A2FF" d="M280.1,888.1c1.7,0,3,1.7,2.5,3.3l-13.3,43.3c-0.3,1.1-1.3,1.8-2.5,1.8h-62
				C243.3,936.3,268.1,919.8,280.1,888.1z"/>
			<g>
				<path fill="#A1A2FF" d="M237.1,911.4c-0.6,3.9,2.1,7.1,6,7.1c3.9,0,7.7-3.2,8.3-7.1c0.7-3.9-2-7.1-6-7.1
					C241.4,904.3,237.7,907.5,237.1,911.4z"/>
				<g>
					<path fill="#FFFFFF" d="M241,907.6h0.4c0.2,0,0.4,0.2,0.4,0.4l-1.1,6.8c0,0.2-0.3,0.4-0.5,0.4h-0.4c-0.2,0-0.4-0.2-0.4-0.4
						l1-6.8C240.6,907.8,240.8,907.6,241,907.6z"/>
					<path fill="#FFFFFF" d="M248.2,907.6h0.4c0.2,0,0.4,0.2,0.4,0.4l-1.1,6.8c0,0.2-0.3,0.4-0.5,0.4h-0.4c-0.2,0-0.4-0.2-0.4-0.4
						l1.1-6.8C247.8,907.8,248,907.6,248.2,907.6z"/>
					<path fill="#FFFFFF" d="M244.4,909.5h0.4c0.2,0,0.4,0.2,0.4,0.4l-0.5,2.8c0,0.2-0.3,0.4-0.5,0.4h-0.4c-0.2,0-0.4-0.2-0.4-0.4
						l0.5-2.8C243.9,909.7,244.1,909.5,244.4,909.5z"/>
				</g>
			</g>
		</g>
	</g>
	<g>
		<path fill="#171754" d="M521.6,699.2h-51l29.9,204.9h6.5l-2.7-18.7h38.1l2.7,18.7h6.5L521.6,699.2z M477.9,705H516l3.5,23.7h-38.1
			L477.9,705z M482.3,735.1h38.1l3.5,23.7h-38.1L482.3,735.1z M486.7,765.1h38.1l3.5,23.7h-38.1L486.7,765.1z M491.1,795.2h38.1
			l3.5,23.7h-38.1L491.1,795.2z M495.5,825.3h38.1l3.5,23.7h-38.1L495.5,825.3z M503.3,879l-3.5-23.7H538l3.5,23.7H503.3z"/>
		<path fill="#2F3F88" d="M444.2,699.2l-29.9,204.9h6.5l2.7-18.7h38.1l-2.7,18.7h6.5l29.9-204.9H444.2z M462.5,879h-38.1l3.5-23.7
			H466L462.5,879z M466.9,848.9h-38.1l3.5-23.7h38.1L466.9,848.9z M471.3,818.9h-38.1l3.5-23.7h38.1L471.3,818.9z M475.7,788.8
			h-38.1l3.5-23.7h38.1L475.7,788.8z M480.1,758.7H442l3.5-23.7h38.1L480.1,758.7z M446.4,728.7l3.5-23.7h38.1l-3.5,23.7H446.4z"/>
	</g>
	<g>
		<g>
			<line fill="none" stroke="#6456C4" stroke-miterlimit="10" x1="1297.3" y1="514.9" x2="1276.6" y2="544.9"/>
			<line fill="none" stroke="#6456C4" stroke-miterlimit="10" x1="1315.8" y1="514.9" x2="1336.6" y2="544.9"/>
			<line fill="none" stroke="#6456C4" stroke-miterlimit="10" x1="1302.3" y1="514.7" x2="1296.3" y2="540.7"/>
			<line fill="none" stroke="#6456C4" stroke-miterlimit="10" x1="1310.3" y1="514.7" x2="1316.3" y2="540.7"/>
			<path fill="#BCB6F9" d="M1262.7,459c0,5.7,1.5,11,4.2,15.8v0c0,0.1,0.1,0.2,0.1,0.2c0.1,0.1,0.2,0.3,0.2,0.4
				c0.2,0.3,0.3,0.5,0.5,0.8c0.1,0.1,0.2,0.3,0.2,0.4c0.1,0.1,0.2,0.3,0.3,0.4c0.1,0.1,0.2,0.3,0.3,0.4c0.1,0.1,0.2,0.3,0.3,0.4
				c0.1,0.1,0.2,0.3,0.3,0.4c0,0,0,0,0,0c0.1,0.1,0.2,0.3,0.3,0.4c0.1,0.2,0.2,0.3,0.4,0.5c0.1,0.2,0.3,0.4,0.4,0.5h-0.1l0.8,0.8
				l23.1,25.5l3,3.3h19.3l3-3.3l23.1-25.5l0.8-0.8h-0.1c0.1-0.2,0.3-0.3,0.4-0.5c0.1-0.2,0.2-0.3,0.4-0.5c0.1-0.1,0.1-0.1,0.2-0.2
				c0,0,0,0,0,0c0.2-0.3,0.4-0.6,0.6-0.9c0.1-0.1,0.2-0.2,0.2-0.3c0.1-0.2,0.2-0.3,0.3-0.5c0.1-0.1,0.2-0.2,0.2-0.4
				c0.2-0.3,0.4-0.6,0.5-0.9c0.1-0.1,0.1-0.3,0.2-0.4c0-0.1,0.1-0.2,0.1-0.2c2.7-4.8,4.2-10.1,4.2-15.8c0-2-0.2-4-0.6-5.9
				c-0.1-0.4-0.2-0.8-0.3-1.3c0-0.2-0.1-0.4-0.1-0.6c-1.8-7.1-6-13.4-11.8-18.3c-7.9-6.7-18.9-10.8-30.9-10.8
				c-21,0-38.6,12.5-42.8,29.2c0,0.2-0.1,0.3-0.1,0.5c-0.1,0.3-0.2,0.7-0.2,1C1263,454.8,1262.7,456.9,1262.7,459z"/>
			<path fill="#505089" d="M1280.1,459c0,5.7,0.9,11,2.5,15.8v0c0,0.1,0.1,0.2,0.1,0.2c0,0.1,0.1,0.3,0.1,0.4
				c0.1,0.3,0.2,0.5,0.3,0.8c0,0.1,0.1,0.3,0.1,0.4c0.1,0.1,0.1,0.3,0.2,0.4c0.1,0.1,0.1,0.3,0.2,0.4c0.1,0.1,0.1,0.3,0.2,0.4
				c0.1,0.1,0.1,0.3,0.2,0.4l0,0c0.1,0.1,0.1,0.3,0.2,0.4c0.1,0.2,0.1,0.3,0.2,0.5c0.1,0.2,0.2,0.4,0.3,0.5h-0.1l0.5,0.8l13.9,25.5
				l1.8,3.3h11.7l1.8-3.3l13.9-25.5l0.5-0.8h-0.1c0.1-0.2,0.2-0.3,0.2-0.5c0.1-0.2,0.1-0.3,0.2-0.5c0-0.1,0.1-0.1,0.1-0.2
				c0,0,0,0,0,0c0.1-0.3,0.3-0.6,0.4-0.9c0-0.1,0.1-0.2,0.1-0.3c0.1-0.2,0.1-0.3,0.2-0.5c0-0.1,0.1-0.2,0.1-0.4
				c0.1-0.3,0.2-0.6,0.3-0.9c0-0.1,0.1-0.3,0.1-0.4c0-0.1,0.1-0.2,0.1-0.2c1.6-4.8,2.5-10.1,2.5-15.8c0-2-0.1-4-0.3-5.9
				c0-0.4-0.1-0.8-0.2-1.3c0-0.2-0.1-0.4-0.1-0.6c-1.1-7.1-3.6-13.4-7.1-18.3c-4.8-6.7-11.4-10.8-18.7-10.8
				c-12.7,0-23.3,12.5-25.8,29.2c0,0.2-0.1,0.3-0.1,0.5c0,0.3-0.1,0.7-0.1,1C1280.2,454.8,1280.1,456.9,1280.1,459z"/>
			<path fill="#BCB6F9" d="M1298,459c0,5.7,0.3,11,0.8,15.8v0c0,0.1,0,0.2,0,0.2c0,0.1,0,0.3,0,0.4c0,0.3,0.1,0.5,0.1,0.8
				c0,0.1,0,0.3,0,0.4c0,0.1,0,0.3,0,0.4c0,0.1,0,0.3,0.1,0.4c0,0.1,0,0.3,0.1,0.4c0,0.1,0,0.3,0.1,0.4l0,0c0,0.1,0,0.3,0.1,0.4
				c0,0.2,0,0.3,0.1,0.5c0,0.2,0.1,0.4,0.1,0.5h0l0.1,0.8l4.5,25.5l0.6,3.3h3.7l0.6-3.3l4.5-25.5l0.1-0.8h0c0-0.2,0.1-0.3,0.1-0.5
				c0-0.2,0-0.3,0.1-0.5c0-0.1,0-0.1,0-0.2c0,0,0,0,0,0c0-0.3,0.1-0.6,0.1-0.9c0-0.1,0-0.2,0-0.3c0-0.2,0-0.3,0.1-0.5
				c0-0.1,0-0.2,0-0.4c0-0.3,0.1-0.6,0.1-0.9c0-0.1,0-0.3,0-0.4c0-0.1,0-0.2,0-0.2c0.5-4.8,0.8-10.1,0.8-15.8c0-2,0-4-0.1-5.9
				c0-0.4,0-0.8-0.1-1.3c0-0.2,0-0.4,0-0.6c-0.3-7.1-1.2-13.4-2.3-18.3c-1.5-6.7-3.7-10.8-6-10.8c-4.1,0-7.5,12.5-8.3,29.2
				c0,0.2,0,0.3,0,0.5c0,0.3,0,0.7,0,1C1298.1,454.8,1298,456.9,1298,459z"/>
			<path fill="#32325D" d="M1315.7,515.9h-18.4c-0.3,0-0.5-0.2-0.5-0.5v-5.8c0-0.3,0.2-0.5,0.5-0.5h18.4c0.3,0,0.5,0.2,0.5,0.5v5.8
				C1316.2,515.7,1316,515.9,1315.7,515.9z"/>
		</g>
		<g>
			
				<ellipse transform="matrix(0.46 -0.8879 0.8879 0.46 203.7196 1464.3671)" fill="#32325D" cx="1305.7" cy="564.7" rx="36.9" ry="36.9"/>
		</g>
		<path fill="#FFFFFF" d="M1330.7,567.3l-0.3,0.2c-1.1-1.4-3.1-1.9-4.6-1.2c0,0,0,0,0,0l-0.7,0.4c-1.6-1.4-3.9-1.6-5.8-0.5l-3.6,1.9
			h-4.7c-1,0-2-0.2-3-0.7l-0.7-0.3c-3.8-1.8-8.3-1.4-11.7,1.1c0,0,0,0,0,0l-1.6,1.4c-0.6,0.5-1.3,0.9-2.1,1.2l-0.9-2.9
			c-0.1-0.3-0.4-0.5-0.7-0.5h-7.6c-0.4,0-0.7,0.3-0.7,0.7c0,0,0,0.1,0,0.1l2.5,20.8c0,0.4,0.3,0.6,0.7,0.6h11.4
			c0.4,0,0.7-0.3,0.7-0.7c0-0.1,0-0.1,0-0.2l-1.5-4.9l4.7-3c0.6-0.3,1.4-0.4,2.1-0.3c0,0,0,0,0,0l9.5,1.8c2.6,0.5,5.3,0.1,7.6-1.1
			c0,0,0.1,0,0.1-0.1l16.5-11.3c0.3-0.2,0.4-0.6,0.2-1C1335.5,566.9,1332.8,566.2,1330.7,567.3z M1326.5,567.6
			c0.9-0.4,2-0.1,2.7,0.6l-6.2,3.4l-0.4,0.2c-0.2-0.6-0.5-1.1-0.9-1.6L1326.5,567.6z M1320.1,567.4
			C1320.1,567.4,1320.1,567.4,1320.1,567.4c1.2-0.7,2.6-0.7,3.7,0l-3.2,1.7c-0.6-0.4-1.3-0.8-2-0.9L1320.1,567.4z M1286.1,588.3
			l-2.4-19.4h6.3l5.9,19.4H1286.1z M1319.3,580.1c-2.1,1-4.4,1.3-6.7,0.9l-9.5-1.7c-1-0.3-2.1-0.1-3.1,0.4c0,0,0,0,0,0l-4.4,2.8
			l-3.1-10.2c1-0.3,1.8-0.8,2.6-1.5l1.6-1.4c2.9-2.2,6.9-2.6,10.2-1l0.7,0.3c1.1,0.5,2.3,0.8,3.6,0.8h6.3c1.9,0,3.6,1.4,3.9,3.3
			l-4.6-0.2c-1.7-0.1-3.3,0-5,0.2c-0.4,0.1-0.7,0.4-0.6,0.8c0.1,0.4,0.4,0.6,0.8,0.6c1.6-0.2,3.2-0.3,4.7-0.2l5.4,0.2c0,0,0,0,0,0
			c0.4,0,0.7-0.3,0.7-0.7c0-0.1,0-0.2,0-0.3l0.7-0.4l7.8-4.2c1.2-0.7,2.8-0.4,3.7,0.6L1319.3,580.1z"/>
		<path fill="#FFFFFF" d="M1287.3,583.3c0,1.2,1,2.2,2.2,2.2c1.2,0,2.2-1,2.2-2.2c0-1.2-1-2.2-2.2-2.2
			C1288.3,581.1,1287.3,582.1,1287.3,583.3z M1289.6,582.5c0.5,0,0.8,0.4,0.8,0.8c0,0.5-0.4,0.8-0.8,0.8c-0.5,0-0.8-0.4-0.8-0.8
			C1288.7,582.9,1289.1,582.5,1289.6,582.5L1289.6,582.5z"/>
		<path fill="#FFFFFF" d="M1312.9,544.8v-2.3c0-3-2.4-5.4-5.4-5.4c-3,0-5.3,2.4-5.4,5.4v2.3c0,3,2.4,5.4,5.4,5.4
			C1310.5,550.1,1312.9,547.7,1312.9,544.8z M1303.5,544.8v-2.3c0-2.2,1.8-4,4-3.9c2.2,0,3.9,1.8,3.9,3.9v2.3c0,2.2-1.8,4-4,3.9
			C1305.3,548.7,1303.6,546.9,1303.5,544.8z"/>
		<path fill="#FFFFFF" d="M1298.8,564.8h17.4c0.4,0,0.7-0.3,0.7-0.7l0,0v-1.6h11.9c0.4,0,0.7-0.3,0.7-0.7v-4.6c0-2.8-2.2-5.1-5-5.3
			c-0.4,0-0.6,0.2-0.7,0.4c-1.1,1.4-3.2,1.6-4.6,0.5c-0.2-0.2-0.4-0.4-0.6-0.6c-0.1-0.2-0.4-0.3-0.6-0.3c-0.9,0-1.8,0.3-2.6,0.8
			c-1.1-1.2-2.6-2-4.2-2.1c-0.4,0-0.6,0.2-0.7,0.4c-1.3,1.6-3.7,1.9-5.4,0.5c-0.2-0.2-0.5-0.4-0.7-0.7c-0.1-0.2-0.4-0.3-0.6-0.3
			c-1.6,0-3,0.7-4.1,1.8c-0.1,0.1-0.2,0.2-0.3,0.3c-0.7-0.4-1.6-0.7-2.4-0.8c-0.4,0-0.6,0.2-0.7,0.4c-1.1,1.4-3.2,1.6-4.6,0.5
			c-0.2-0.2-0.4-0.4-0.6-0.6c-0.1-0.2-0.4-0.3-0.6-0.3c-2.9,0.1-5.2,2.4-5.2,5.3v4.6c0,0.4,0.3,0.7,0.7,0.7h11.9v1.6
			C1298.1,564.4,1298.4,564.8,1298.8,564.8z M1317.8,553.2c1.7,1.9,4.7,2.1,6.6,0.4c0.1-0.1,0.3-0.3,0.4-0.4
			c1.9,0.3,3.3,1.9,3.3,3.9v3.9h-11.2v-4.6c0-0.9-0.2-1.9-0.7-2.7C1316.7,553.5,1317.2,553.3,1317.8,553.2L1317.8,553.2z
			 M1303.6,551.9c1.9,2.2,5.2,2.4,7.4,0.5c0.2-0.2,0.4-0.3,0.5-0.5c2.3,0.3,3.9,2.2,3.9,4.5v6.9h-16v-6.9
			C1299.6,554.1,1301.3,552.2,1303.6,551.9z M1286.9,561v-3.9c0-2,1.5-3.6,3.5-3.9c1.7,1.9,4.7,2.1,6.6,0.4c0.1-0.1,0.3-0.3,0.4-0.4
			c0.5,0.1,1,0.2,1.4,0.5c-0.4,0.8-0.7,1.8-0.6,2.7v4.6H1286.9z"/>
		<path fill="#FFFFFF" d="M1326,546.9v-2c0-2.7-2.2-4.8-4.8-4.8s-4.8,2.2-4.8,4.8v2c0,2.7,2.2,4.8,4.8,4.8S1326,549.5,1326,546.9z
			 M1317.8,546.9v-2c0-1.9,1.5-3.4,3.4-3.4c1.9,0,3.4,1.5,3.4,3.4c0,0,0,0,0,0v2c0,1.9-1.5,3.4-3.4,3.4
			C1319.3,550.3,1317.8,548.7,1317.8,546.9C1317.8,546.9,1317.8,546.9,1317.8,546.9z"/>
		<path fill="#FFFFFF" d="M1298.6,546.9v-2c0-2.7-2.2-4.8-4.8-4.8s-4.8,2.2-4.8,4.8v2c0,2.7,2.2,4.8,4.8,4.8
			S1298.6,549.5,1298.6,546.9z M1290.4,546.9v-2c0-1.9,1.5-3.4,3.4-3.4c1.9,0,3.4,1.5,3.4,3.4c0,0,0,0,0,0v2c0,1.9-1.5,3.4-3.4,3.4
			S1290.4,548.7,1290.4,546.9C1290.4,546.9,1290.4,546.9,1290.4,546.9z"/>
	</g>
	<g>
		<g>
			<path fill="none" stroke="#6456C4" stroke-miterlimit="10" d="M347.1,509.8c0,4.4-1.8,4.4-1.8,8.8c0,4.4,1.8,4.4,1.8,8.8
				c0,4.4-1.8,4.4-1.8,8.8c0,4.4,1.8,4.4,1.8,8.8s-1.8,4.4-1.8,8.8"/>
			<path fill="none" stroke="#6456C4" stroke-miterlimit="10" d="M331.4,523.2c0,3.8-1.8,3.8-1.8,7.6c0,3.8,1.8,3.8,1.8,7.6
				c0,3.8-1.8,3.8-1.8,7.6c0,3.8,1.8,3.8,1.8,7.6c0,3.8-1.8,3.8-1.8,7.6"/>
			<path fill="none" stroke="#6456C4" stroke-miterlimit="10" d="M312.6,510.1c0,3.7-1.8,3.7-1.8,7.5c0,3.7,1.8,3.7,1.8,7.5
				c0,3.7-1.8,3.7-1.8,7.5c0,3.7,1.8,3.7,1.8,7.5s-1.8,3.7-1.8,7.5"/>
			<g>
				<path fill="#6456C4" d="M310.8,510c0,0.8,0.8,1.4,1.9,1.4s1.9-0.6,1.9-1.4c0-0.6-0.4-1.1-1.1-1.3c-0.3,0-0.5,0-0.8,0
					c-0.3,0-0.5,0-0.8,0C311.2,508.9,310.8,509.4,310.8,510z"/>
				<path fill="#9087F4" d="M331.1,487c0,11.8-7.8,21.4-17.5,22c-0.3-0.1-0.6,0.2-0.9,0.3h0c-0.3,0-0.6-0.3-0.9-0.3
					c-9.7-0.6-17.5-10.2-17.5-22c0-12.1,8.3-22,18.4-22C322.8,465.1,331.1,474.9,331.1,487z"/>
				<circle fill="#BCB6F9" cx="303.7" cy="479.7" r="3"/>
			</g>
			<g>
				<g>
					<path fill="#DDD3FF" d="M329.2,505.4c-0.2,0-0.3-0.2-0.3-0.5c0-1-0.2-1.4-0.4-1.9c-0.2-0.6-0.5-1.2-0.5-2.5
						c0-1.2,0.3-1.9,0.5-2.5c0.2-0.5,0.4-1,0.4-1.9c0-1-0.2-1.4-0.4-1.9c-0.2-0.6-0.5-1.2-0.5-2.5c0-1.2,0.3-1.9,0.5-2.5
						c0.2-0.5,0.4-1,0.4-1.9c0-0.3,0.1-0.5,0.3-0.5s0.3,0.2,0.3,0.5c0,1.2-0.3,1.9-0.5,2.5c-0.2,0.5-0.4,1-0.4,1.9
						c0,1,0.2,1.4,0.4,1.9c0.2,0.6,0.5,1.2,0.5,2.5c0,1.2-0.3,1.9-0.5,2.5c-0.2,0.5-0.4,1-0.4,1.9c0,1,0.2,1.4,0.4,1.9
						c0.2,0.6,0.5,1.2,0.5,2.5C329.5,505.2,329.4,505.4,329.2,505.4z"/>
				</g>
				<path fill="#6456C4" d="M327.4,486.2c0,0.7,0.8,1.3,1.7,1.3s1.7-0.6,1.7-1.3c0-0.5-0.4-1-1-1.2c-0.2,0-0.5,0-0.7,0s-0.5,0-0.7,0
					C327.8,485.3,327.4,485.7,327.4,486.2z"/>
				<path fill="#9087F4" d="M346.1,465.2c0,10.8-7.1,19.7-16.1,20.2c-0.3-0.1-0.5,0.2-0.8,0.2h0c-0.3,0-0.6-0.3-0.8-0.2
					c-8.9-0.5-16.1-9.4-16.1-20.2c0-11.1,7.6-20.2,16.9-20.2C338.5,445,346.1,454,346.1,465.2z"/>
			</g>
			<g>
				<path fill="#9087F4" d="M343.4,511.8c0,0.8,0.8,1.4,1.9,1.4c1,0,1.9-0.6,1.9-1.4c0-0.6-0.4-1.1-1.1-1.3c-0.3,0-0.5,0-0.8,0
					c-0.3,0-0.5,0-0.8,0C343.8,510.7,343.4,511.2,343.4,511.8z"/>
				<path fill="#6456C4" d="M363.6,488.8c0,11.8-7.8,21.4-17.5,22c-0.3-0.1-0.6,0.2-0.9,0.3h0c-0.3,0-0.6-0.3-0.9-0.3
					c-9.7-0.6-17.5-10.2-17.5-22c0-12.1,8.3-22,18.4-22C355.4,466.8,363.6,476.7,363.6,488.8z"/>
			</g>
			<g>
				<path fill="#DDD3FF" d="M330.4,522c0,0.8,0.8,1.4,1.9,1.4c1,0,1.9-0.6,1.9-1.4c0-0.6-0.4-1.1-1.1-1.3c-0.3,0-0.5,0-0.8,0
					c-0.3,0-0.5,0-0.8,0C330.9,521,330.4,521.4,330.4,522z"/>
				<path fill="#DDD3FF" d="M350.7,499.1c0,11.8-7.8,21.4-17.5,22c-0.3-0.1-0.6,0.2-0.9,0.3h0c-0.3,0-0.6-0.3-0.9-0.3
					c-9.7-0.6-17.5-10.2-17.5-22c0-12.1,8.3-22,18.4-22C342.4,477.1,350.7,487,350.7,499.1z"/>
				<circle fill="#FFFFFF" cx="324.3" cy="490.3" r="3"/>
			</g>
		</g>
	</g>
	<rect x="786.2" y="811.3" fill="#CF388D" width="44.2" height="5.1"/>
	<g>
		<g>
			<path fill="#CF388D" d="M814.2,822.1c-0.4,0.1-0.9-0.1-1.2-0.4c-0.4-0.4-0.7-1-0.7-1.5c0-0.3,0.1-0.6,0.2-0.8
				c-0.4,0.1-0.7,0.3-1.1,0.6c-1.4,1.1-2.2,2.7-2.3,4.5l-0.7,0c0.1-1.9,1-3.8,2.6-5c0.7-0.5,1.3-0.8,2-0.9c0.2-0.2,0.4-0.5,0.6-0.7
				c0.9-1,2.1-1.8,3.4-2.4l0.3,0.7c-1.2,0.5-2.3,1.3-3.2,2.2c-0.1,0.1-0.2,0.2-0.2,0.2c0.8,0.2,1.4,0.6,1.6,1.3
				c0.2,0.5,0.1,1-0.2,1.5c0,0,0,0.1-0.1,0.1C814.9,821.8,814.6,822.1,814.2,822.1z M813,820.2c0,0.4,0.2,0.7,0.4,1
				c0.1,0.1,0.4,0.3,0.6,0.2c0.3,0,0.5-0.3,0.6-0.4c0.2-0.3,0.2-0.6,0.1-0.9c-0.2-0.6-0.9-0.9-1.4-0.9
				C813.1,819.6,813,819.9,813,820.2z"/>
		</g>
		<g>
			<path fill="#CF388D" d="M820,821.5C820,821.4,820,821.4,820,821.5c-0.3-0.5-0.4-1.1-0.2-1.6c0.3-0.7,0.9-1.1,1.6-1.3
				c-0.1-0.1-0.1-0.2-0.2-0.2c-0.9-0.9-2-1.7-3.2-2.2l0.3-0.7c1.3,0.5,2.4,1.4,3.4,2.4c0.2,0.2,0.4,0.5,0.6,0.7
				c0.7,0.1,1.3,0.4,2,0.9c1.5,1.2,2.5,3.1,2.6,5l-0.7,0c-0.1-1.7-0.9-3.4-2.3-4.5c-0.4-0.3-0.7-0.5-1.1-0.6
				c0.1,0.3,0.2,0.6,0.2,0.8c0,0.6-0.3,1.1-0.7,1.5c-0.4,0.3-0.8,0.5-1.2,0.4C820.7,822.1,820.3,821.8,820,821.5z M822,819.2
				c-0.6,0-1.2,0.3-1.4,0.9c-0.1,0.3-0.1,0.6,0.1,0.9c0.1,0.1,0.3,0.4,0.6,0.4c0.3,0,0.5-0.1,0.6-0.2c0.3-0.2,0.4-0.6,0.4-1
				C822.2,819.9,822.1,819.6,822,819.2z"/>
		</g>
		<g>
			<path fill="#FC5D9C" d="M805.6,814.1l-0.3,1.6c-0.5,2.1,1.1,4,2.9,3.4l9.4-2.9l9.4,2.9c1.8,0.5,3.4-1.4,2.9-3.4l-0.3-1.6l0.3-1.6
				c0.5-2.1-1.1-4-2.9-3.4l-9.4,2.9l-9.4-2.9c-1.8-0.5-3.4,1.4-2.9,3.4L805.6,814.1z"/>
			<path fill="#CF388D" d="M820.5,814.1c0,1.6-1.3,2.9-2.9,2.9s-2.9-1.3-2.9-2.9c0-1.6,1.3-2.9,2.9-2.9S820.5,812.5,820.5,814.1z"/>
		</g>
	</g>
</g>
<path fill="#3ECF8E" stroke="#3ECF8E" stroke-width="0.25" d="M1077.3,415.6l23.7-25.1l-12.2-13.7h6.5l8.6,9.9l24.2-20.9h2
	l-23.3,24.8l12.6,14.1h-6.4l-9.4-10.4l-24.4,21.5H1077.3z"/>
</svg>
