<?xml version="1.0" standalone="no"?>
<!DOCTYPE svg PUBLIC "-//W3C//DTD SVG 20010904//EN"
 "http://www.w3.org/TR/2001/REC-SVG-20010904/DTD/svg10.dtd">
<svg version="1.0" xmlns="http://www.w3.org/2000/svg"
 width="200.000000pt" height="200.000000pt" viewBox="0 0 200.000000 200.000000"
 preserveAspectRatio="xMidYMid meet">

<g transform="translate(0.000000,200.000000) scale(0.100000,-0.100000)"
fill="#000000" stroke="none">
<path d="M980 1460 l0 -40 -103 0 -103 0 -48 -90 c-32 -60 -53 -90 -65 -90
-40 0 -55 -51 -21 -72 18 -12 20 -24 20 -125 l0 -112 -35 6 c-40 6 -80 -15
-97 -53 -6 -13 -19 -24 -30 -24 -10 0 -27 -9 -38 -20 -11 -11 -27 -20 -35 -20
-26 0 -65 -47 -65 -77 1 -32 15 -55 47 -71 27 -15 193 -16 193 -2 0 6 -38 10
-93 10 -78 0 -97 3 -110 18 -34 38 -9 102 39 102 11 0 25 9 32 21 11 17 20 20
43 15 25 -5 29 -3 29 18 0 47 76 86 108 54 8 -8 12 -65 12 -190 l0 -178 -50 0
c-27 0 -50 -4 -50 -10 0 -7 177 -10 510 -10 333 0 510 3 510 10 0 6 -13 10
-30 10 l-30 0 0 140 c0 128 2 140 18 140 23 0 42 19 42 42 0 10 -33 42 -82 78
l-82 60 68 0 c64 0 70 2 102 34 25 25 34 43 34 66 0 37 -55 100 -88 100 -12 0
-23 9 -27 20 -9 27 -42 43 -74 37 -24 -5 -29 -2 -40 29 -14 39 -62 74 -101 74
-33 0 -87 -33 -95 -59 -12 -39 -31 -25 -76 57 -26 48 -39 62 -56 62 -20 0 -23
5 -23 40 0 38 -2 40 -30 40 -28 0 -30 -2 -30 -40z m40 -50 c0 -40 -4 -70 -10
-70 -6 0 -10 30 -10 70 0 40 4 70 10 70 6 0 10 -30 10 -70z m-40 -55 c0 -32 2
-35 30 -35 28 0 30 3 30 35 0 57 26 43 65 -35 19 -38 35 -72 35 -75 0 -3 -94
-5 -210 -5 -116 0 -210 2 -210 5 0 3 16 37 35 75 l35 70 95 0 95 0 0 -35z
m371 -44 c19 -20 29 -40 29 -60 0 -30 13 -41 25 -21 17 27 95 -3 95 -37 0 -7
11 -13 25 -13 36 0 75 -42 75 -80 0 -19 -9 -40 -25 -55 -22 -23 -32 -25 -106
-25 -81 0 -82 0 -145 45 -63 45 -87 54 -99 35 -13 -20 -25 -9 -25 23 0 21 7
36 20 45 34 21 19 72 -21 72 -10 0 -21 4 -24 10 -3 6 1 7 9 4 11 -4 16 0 16
11 0 29 55 75 90 75 22 0 41 -9 61 -29z m-141 -111 c0 -6 -100 -10 -280 -10
-180 0 -280 4 -280 10 0 6 100 10 280 10 180 0 280 -4 280 -10z m-40 -90 l0
-49 -121 -88 c-67 -48 -124 -93 -127 -101 -7 -21 11 -46 37 -50 20 -3 21 -8
21 -138 l0 -134 -50 0 -50 0 0 85 0 85 -50 0 -50 0 0 -85 0 -85 -45 0 -45 0 0
305 0 305 240 0 240 0 0 -50z m238 -141 c78 -56 142 -107 142 -112 0 -16 -24
-1 -158 97 -72 53 -136 96 -141 96 -6 0 -70 -43 -142 -96 -135 -98 -165 -116
-158 -96 6 18 292 223 305 218 5 -2 74 -50 152 -107z m-76 -9 l82 -60 -57 0
c-31 0 -57 -4 -57 -10 0 -6 30 -10 70 -10 48 0 79 -5 95 -16 23 -15 25 -23 25
-90 l0 -74 -55 0 c-30 0 -55 -4 -55 -10 0 -5 25 -10 55 -10 l55 0 0 -65 0 -65
-75 0 -75 0 0 75 0 75 -90 0 -90 0 0 -75 0 -75 -75 0 -75 0 0 65 0 65 55 0
c30 0 55 5 55 10 0 6 -25 10 -55 10 l-55 0 0 74 c0 67 2 75 25 90 16 11 47 16
95 16 40 0 70 4 70 10 0 6 -26 10 -57 10 l-57 0 80 59 c43 33 80 60 82 60 1 1
39 -26 84 -59z m-472 -330 l0 -70 -30 0 -30 0 0 70 0 70 30 0 30 0 0 -70z"/>
<path d="M1327 1209 c17 -5 34 -18 38 -28 4 -13 12 -17 29 -14 16 3 28 -2 37
-14 8 -11 26 -23 41 -26 15 -4 30 -16 33 -28 4 -11 9 -18 12 -16 9 10 -17 46
-39 53 -13 3 -31 15 -41 25 -10 11 -27 19 -37 19 -11 0 -29 9 -40 20 -11 11
-30 20 -42 19 -18 -1 -16 -3 9 -10z"/>
<path d="M780 1070 l0 -50 50 0 50 0 0 50 0 50 -50 0 -50 0 0 -50z m80 0 c0
-27 -3 -30 -30 -30 -27 0 -30 3 -30 30 0 27 3 30 30 30 27 0 30 -3 30 -30z"/>
<path d="M960 1070 l0 -50 50 0 50 0 0 50 0 50 -50 0 -50 0 0 -50z m80 0 c0
-27 -3 -30 -30 -30 -27 0 -30 3 -30 30 0 27 3 30 30 30 27 0 30 -3 30 -30z"/>
<path d="M780 890 l0 -50 50 0 50 0 0 50 0 50 -50 0 -50 0 0 -50z m80 0 c0
-27 -3 -30 -30 -30 -27 0 -30 3 -30 30 0 27 3 30 30 30 27 0 30 -3 30 -30z"/>
<path d="M1220 890 c0 -5 14 -10 30 -10 17 0 30 5 30 10 0 6 -13 10 -30 10
-16 0 -30 -4 -30 -10z"/>
<path d="M1060 790 l0 -50 50 0 50 0 0 50 0 50 -50 0 -50 0 0 -50z m80 0 c0
-27 -3 -30 -30 -30 -27 0 -30 3 -30 30 0 27 3 30 30 30 27 0 30 -3 30 -30z"/>
<path d="M1200 790 l0 -50 50 0 50 0 0 50 0 50 -50 0 -50 0 0 -50z m80 0 c0
-27 -3 -30 -30 -30 -27 0 -30 3 -30 30 0 27 3 30 30 30 27 0 30 -3 30 -30z"/>
<path d="M1340 790 l0 -50 50 0 50 0 0 50 0 50 -50 0 -50 0 0 -50z m80 0 c0
-27 -3 -30 -30 -30 -27 0 -30 3 -30 30 0 27 3 30 30 30 27 0 30 -3 30 -30z"/>
<path d="M620 670 c0 -5 5 -10 10 -10 6 0 10 5 10 10 0 6 -4 10 -10 10 -5 0
-10 -4 -10 -10z"/>
</g>
</svg>
